<?xml version="1.0" encoding="UTF-8"?>
<svg id="Layer_2" data-name="Layer 2" xmlns="http://www.w3.org/2000/svg" viewBox="0 0 47.53 44.39">
  <g id="Layer_1-2" data-name="Layer 1">
    <g>
      <path d="M47.52,20.41v-2.79c0-2.73,0-5.45-.02-8.18-.02-1.89-.53-3.68-1.52-5.32C44.34,1.39,42.04,0,39.15,0h-10.99S19.96,0,19.96,0C16.15,0,12.34,0,8.53,.01c-.89,0-1.65,.1-2.32,.29C2.51,1.34,.02,5.27,0,10.08,0,16.85,0,23.61,0,30.38v3.93c0,.47,.01,.98,.07,1.48,.64,5.13,3.95,8.59,8.25,8.59,4.4,0,8.81,.01,13.21,.01,5.89,0,11.78,0,17.67-.03,1.04,0,2.03-.2,2.88-.57,3.33-1.43,5.42-5.05,5.43-9.43,.01-3.62,.01-7.24,0-10.86v-3.1Zm-3.54-10.14c0,7.95,0,15.89,0,23.83,0,3.77-1.92,6.21-4.88,6.21-3.59,0-7.18,0-10.77,0h-4.61s-4.52,0-4.52,0c-3.66,0-7.31,0-10.97,0-2.43,0-4.35-2.08-4.66-5.04-.04-.33-.05-.67-.05-1.01v-4.31c0-6.61,0-13.23,0-19.84,0-3.17,1.64-5.64,3.99-6,.3-.05,.61-.05,.91-.05,5.61,0,11.22,0,16.83,0,4.61,0,9.22,0,13.84,0,2.96,0,4.88,2.44,4.88,6.21Z"/>
      <path d="M39.5,13.12c.74-.89,1.48-1.79,2.2-2.71,.63-.8,.64-1.85,0-2.67-.43-.56-.9-.7-1.23-.73-.31-.02-.79,.04-1.27,.5-.18,.17-.35,.37-.51,.57l-14.94,18.08L8.8,8.05c-.2-.25-.42-.5-.69-.71-.33-.26-.73-.37-1.13-.32-.48,.07-.92,.36-1.24,.83-.48,.7-.51,1.64-.07,2.34,.15,.24,.33,.46,.55,.72l.62,.75c3.01,3.66,6.02,7.31,9.04,10.96,.03,.04,.07,.08,.1,.11l-9.81,11.55c-.77,.92-.87,2.01-.24,2.87,.45,.61,.95,.76,1.29,.78,.36,.02,.92-.09,1.5-.71,.15-.16,.29-.34,.44-.51l9.3-10.97,1.24,1.5c.86,1.04,1.72,2.09,2.58,3.13,.31,.38,.81,.88,1.5,.88,.69,0,1.19-.51,1.51-.89l.39-.47c.88-1.06,1.76-2.11,2.62-3.19,.27-.34,.53-.71,.8-1.09,0,0,0,.01,.01,.01l7.79,9.2c.66,.78,1.33,1.57,1.99,2.35,.44,.51,.9,.76,1.38,.76,.18,0,.36-.04,.54-.1,.62-.23,1.06-.73,1.23-1.35,.19-.73-.03-1.56-.59-2.22-3.23-3.8-6.45-7.6-9.69-11.39-.05-.06-.1-.11-.15-.16,.01-.02,.03-.04,.05-.06l7.85-9.52Z"/>
    </g>
  </g>
</svg>