<?xml version="1.0" encoding="UTF-8"?>
<svg id="Layer_2" data-name="Layer 2" xmlns="http://www.w3.org/2000/svg" viewBox="0 0 45 45">
  <g id="Layer_1-2" data-name="Layer 1">
    <path d="M31,0H14C6.27,0,0,6.27,0,14V31c0,7.73,6.27,14,14,14H31c7.73,0,14-6.27,14-14V14c0-7.73-6.27-14-14-14Zm.67,19.83c-.13,1.31-.28,2.62-.45,3.93-.05,.42-.37,.65-.86,.65-1.15,0-2.29,.02-3.44,0-.43-.01-.51,.15-.51,.53,0,3.6-.02,7.2-.03,10.8,0,.72-.13,.85-.84,.85-1.21,0-2.41,0-3.62,0-.66,0-.81-.15-.81-.8,0-3.6,0-7.2,0-10.8v-.57c-.92,0-1.8,0-2.68,0-.9,0-1.12-.22-1.12-1.11,0-1.15-.01-2.29-.01-3.44,0-.69,.27-.96,.95-.96,.92,0,1.85,0,2.83,0,0-.18,.02-.33,.02-.49,0-1.19-.01-2.38,0-3.57,.02-1.2,.25-2.36,.82-3.43,.92-1.73,2.4-2.76,4.32-2.97,1.5-.17,3.02-.1,4.53-.11,.43,0,.71,.28,.72,.69,.03,1.16,.04,2.32,0,3.48-.02,.47-.36,.71-.9,.72-.68,.01-1.35,0-2.03,0-1.38,.02-2.05,.54-2.16,1.9-.1,1.24-.02,2.49-.02,3.79,.47,0,.92,0,1.37,0,1,0,2,0,3,0,.63,0,.95,.3,.89,.92Z"/>
  </g>
</svg>