<?xml version="1.0" encoding="UTF-8"?>
<svg id="Layer_2" data-name="Layer 2" xmlns="http://www.w3.org/2000/svg" viewBox="0 0 375 434.01">
  <defs>
    <style>
      .cls-1 {
        fill: #b431b6;
      }

      .cls-2 {
        fill: #ab35ab;
      }

      .cls-3 {
        fill: #3f094c;
      }

      .cls-4 {
        fill: #8a139b;
      }

      .cls-5 {
        fill: #52f200;
      }

      .cls-6 {
        fill: #7d1089;
      }

      .cls-7 {
        fill: #520a56;
      }
    </style>
  </defs>
  <g id="Layer_1-2" data-name="Layer 1">
    <g>
      <path class="cls-5" d="M58,378c-3,17-20,20-39,20S0,411.98,0,411.98v-62.5s11,.52,17,6.52,18,6,33-2,11,7,8,24Z"/>
      <path class="cls-7" d="M166.72,338.57c-4.17,4.35-9.36,9.16-12.72,14.43-7,11-25,35-27,36s-16,17-12,27,4,18,4,18h-41c0-14,7-30,10-34,1.23-1.64,8.72-7.34,17.74-14.33,12.91-9.99,28.96-22.6,34.26-29.67,9-12,0-30,0-30h.08c-8.91-8.45-19.35-13.18-29.68-15.9-14.45-3.81-29.21-4.24-43.58-8.72-20.9-6.5-40.7-21.66-56.93-43.58-3.58-4.83-7.31-12.08-5.47-18.95,1.32-4.92,5.02-7.06,8.37-7.41,3.37-.33,6.79,.57,10.07-.63,7.04-2.59,11.43-14.52,11.86-25.97,.43-11.44-2.22-22.55-4.82-33.25-3.44-14.13-6.88-28.26-10.32-42.4-2.32-9.53-4.66-19.25-5.1-29.46-.44-10.2,1.32-21.15,6.09-28.02,5.61-8.07,13.85-8.83,20.98-12.86,9.23-5.23,16.72-16.15,23.34-27.63,5.37-9.31,10.45-19.48,13.26-31.22h39.1c.77,.01,1.31,.01,1.57,.01,.37,2.14-.04,6.56-2.12,15.07-6.17,25.25-17.79,33.16-21.59,35.8-3.79,2.64-14.92,2.72-17.55,3.01-2.58,.29-12.56,8.39-17.94,17.02-.09,.14-.17,.27-.26,.41-10.73,17.71-23.89,43.7-22.12,68.13,1.78,24.42,13.52,45.6,16.84,61.05s2.17,48.2,6.64,54.65c4.65,6.71,26.09-8.67,34.39,12.43,8.31,21.11,30.05-.29,46.53,14.49,12.15,10.9,23.5,25.56,31.03,43.93h.33c1.56,3.65-1.76,7.83-6.28,12.57Z"/>
      <path class="cls-3" d="M210.85,342.47h0s-11.29,20.33-11.29,20.33h-.01c-7.17,4.43-15.73,7.65-19.55,8.2-1.83,.26-3.65,1-5.23,2.04-2.61,1.71-4.54,4.24-4.66,6.8-.09,1.81,.74,3.62,2.89,5.16,7,5,5,13-3,15-3.52,.88-9.75,1.95-15.97,3.31-7.91,1.72-15.79,3.89-18.03,6.69-4,5-6,13-3,24h-14s0-8-4-18,10-26,12-27,20-25,27-36c3.36-5.27,8.55-10.08,12.72-14.43,4.52-4.74,7.84-8.92,6.28-12.57h-.33c-7.53-18.37-18.88-33.03-31.03-43.93-16.48-14.78-34.71-23.79-52.17-35.38-5.8-3.84-11.63-8.09-16.28-14.8-4.47-6.45-7.62-14.85-10.54-23.24-7.51-21.5-14.12-44.38-15.89-68.8-1.78-24.43,1.87-50.82,12.6-68.53,.09-.14,.17-.27,.26-.41,5.38-8.63,15.36-16.73,17.94-17.02,2.63-.29,13.76-.37,17.55-3.01,3.8-2.64,15.42-10.55,21.59-35.8,2.08-8.51,2.49-12.93,2.12-15.07-.26,0-.8,0-1.57-.01h15.98c.86,18.78-1.01,37.56-6.94,53.71-6.82,18.58-18.79,32.18-32.06,36.43-6.71,2.14-13.94,2.13-19.83,7.65-.18,.16-.34,.33-.51,.5-.11,.11-.21,.23-.31,.34-.06,.06-.12,.13-.18,.19-.05,.05-.09,.11-.13,.16-7.47,8.15-10.51,23.68-11.87,38.11-1.06,11.13-1.44,22.95,1.46,33.21,2.38,8.38,6.73,14.92,11.3,20.54,22.11,27.22,50.45,37.39,75.59,56.93,.81,.63,1.61,1.27,2.42,1.92,21.83,17.67,41.17,43.74,54.54,76.31h.29s2.91,8.15,3.85,16.47Z"/>
      <path class="cls-5" d="M177.08,414.48c-.53,.33-1.07,.7-1.62,1.1-.36,.27-.72,.55-1.08,.85-.34,.28-.68,.57-1.02,.87-.34,.31-.68,.62-1.01,.94l-.13,.13c-.36,.35-.71,.7-1.06,1.06-.18,.18-.36,.37-.53,.55-.04,.04-.08,.09-.13,.13-.3,.33-.6,.66-.91,.99-.69,.78-1.38,1.58-2.04,2.38-.3,.37-.6,.74-.89,1.11-.97,1.21-1.87,2.41-2.68,3.52-.18,.24-.34,.47-.51,.7,.24-.34,.49-.69,.74-1.04,.51-.7,1.06-1.43,1.64-2.18,.33-.43,.68-.87,1.03-1.32,.36-.44,.72-.88,1.08-1.32,.17-.2,.34-.41,.52-.61,.18-.21,.36-.42,.53-.62,1.74-2,3.62-3.91,5.51-5.44,.22-.18,.45-.36,.67-.53,.25-.19,.5-.37,.75-.54,.22-.15,.44-.3,.66-.44,.09-.06,.19-.12,.28-.18,.07-.04,.13-.08,.2-.11Z"/>
      <path class="cls-5" d="M179.21,413.42c-.7,.27-1.41,.63-2.13,1.06,.02-.02,.05-.04,.07-.05,.48-.29,.95-.54,1.42-.75,.21-.1,.41-.18,.62-.26h.02Z"/>
      <path class="cls-5" d="M243.66,427.62l-2.66,6.38c0-1.53,1.12-3.81,2.66-6.38Z"/>
      <path class="cls-7" d="M313.57,226.11c-2.53,30.38-15.61,59.01-11.79,89.04,.48,3.74,1.23,7.38,2.21,10.85h.02c.33,.14,7.27,3.17,5.31,20.52-.08,.79-.19,1.62-.32,2.48-3,20-22,41-29,45-3.24,1.85-8.19,6.27-12.56,10.97-5.11,5.48-9.44,11.34-9.44,14.03,0,.25-.01,.51-.03,.79,0,.2-.03,.41-.06,.63-.04,.41-.11,.84-.19,1.29-.04,.29-.1,.57-.16,.87-.03,.19-.08,.38-.12,.57-.12,.57-.26,1.15-.42,1.74-.05,.2-.11,.39-.16,.59-.1,.39-.21,.78-.33,1.17-.06,.19-.12,.38-.17,.57-.12,.39-.23,.76-.35,1.13-.22,.67-.43,1.31-.63,1.9-.13,.38-.26,.75-.39,1.09-.11,.3-.21,.59-.3,.85-.03,.09-.06,.17-.09,.25-.14,.36-.26,.67-.35,.92-.06,.16-.11,.3-.16,.4-.02,.05-.03,.09-.05,.13l-.03,.08v.03h-13.01c0-4,1.12-3.81,2.66-6.38,3.47-5.83,9.03-13.15,8.34-16.62-.2-1-.24-2.04-.13-3.09,.25-2.52,1.33-5.09,3.02-7.25,1.12-1.44,2.52-2.7,4.11-3.66,5-3,27-34,26-43s1-28,1-28h-.11c-4.16-12.66-7.96-25.36-6.78-39.15,1.55-18.05,11.52-32.58,12-50.79,.1-3.86-.27-7.89-1.62-11.12-1.06-2.53-2.64-4.38-4.26-5.99-16.7-16.58-40.48-12.28-54.14-34.82-4.04-6.67-6.79-16.92-4.12-25.14,3.13-9.59,11.43-10.87,16.7-17.7,6.55-8.51,7.22-24.71,3.89-37.08-3.33-12.36-9.74-21.83-15.91-31.05-1.4-2.08-2.84-4.3-3.4-7.21-.73-3.83,.24-7.91,1.19-11.62,2.14-8.38,8.35-8.92,7.51-24.56-.83-15.64-.87-13.27,1.9-17.71,1.96-3.12,1.29-8.05,2.43-12.06h12.96c-1.71,7.94-3,16.1-3.81,24.44-3.26,33.64,2.29,70.44,17.59,94.27,9.54,14.84,22.19,23.98,31.45,39.26,10.8,17.81,16.14,43.62,14.1,68.14Z"/>
      <path class="cls-7" d="M238.85,12.06c-2.77,4.44-2.73,2.07-1.9,17.71,.84,15.64-5.37,16.18-7.51,24.56,2.14-8.38,4.29-16.75,6.44-25.12-3.95-2.88-1.32-12.23,1.24-17.82,1.63-3.56,3.02-7.38,4.16-11.39-1.14,4.01-.47,8.94-2.43,12.06Z"/>
      <path class="cls-6" d="M279.11,286.85c-1.18,13.79,2.62,26.49,6.78,39.15h.11s-2,19-1,28-21,40-26,43c-1.59,.96-2.99,2.22-4.11,3.66-1.69,2.16-2.77,4.73-3.02,7.25-.11,1.05-.07,2.09,.13,3.09,.69,3.47-4.87,10.79-8.34,16.62-1.54,2.57-2.66,4.85-2.66,6.38h-11s.02-.05,.06-.14l.04-.09s.03-.07,.05-.11l.05-.13,.14-.32c.02-.07,.04-.13,.07-.2,.03-.06,.06-.13,.09-.21,.05-.13,.11-.27,.18-.43,.47-1.15,1.19-2.86,2.1-5,.11-.25,.22-.51,.33-.78,1.11-2.61,2.48-5.78,4.03-9.28,.19-.43,.38-.87,.57-1.3,1.53-3.45,3.22-7.19,5.01-11.02,.16-.37,.33-.73,.5-1.09,.78-1.65,1.57-3.32,2.37-4.98,5.56-11.54,11.62-22.93,16.41-28.92,12-15,16-44,16-44h-.21c-.99-20.39-6.48-40.47-14.3-56.98-11.09-23.37-26.43-40.66-41.94-56.44-8.92-9.06-18.95-20.15-19.91-36.89-1.25-21.91,13.55-37.09,18.51-57.63,2.69-11.15,2.27-24.09-1.12-34.75-1.85-5.82-4.59-11.16-5.21-17.61-.65-6.76,1.14-13.45,2.89-19.69,4.29-15.34,8.58-30.67,12.87-46.01h11.7c-1.14,4.01-2.53,7.83-4.16,11.39-2.56,5.59-5.19,14.94-1.24,17.82-2.15,8.37-4.3,16.74-6.44,25.12-.95,3.71-1.92,7.79-1.19,11.62,.56,2.91,2,5.13,3.4,7.21,6.17,9.22,12.58,18.69,15.91,31.05,3.33,12.37,2.66,28.57-3.89,37.08-5.27,6.83-13.57,8.11-16.7,17.7-2.67,8.22,.08,18.47,4.12,25.14,13.66,22.54,37.44,18.24,54.14,34.82,1.62,1.61,3.2,3.46,4.26,5.99,1.35,3.23,1.72,7.26,1.62,11.12-.48,18.21-10.45,32.74-12,50.79Z"/>
      <path class="cls-6" d="M238.85,12.06c-2.77,4.44-2.73,2.07-1.9,17.71,.84,15.64-5.37,16.18-7.51,24.56,2.14-8.38,4.29-16.75,6.44-25.12-3.95-2.88-1.32-12.23,1.24-17.82,1.63-3.56,3.02-7.38,4.16-11.39-1.14,4.01-.47,8.94-2.43,12.06Z"/>
      <path class="cls-4" d="M278,326s-4,29-16,44c-4.79,5.99-10.85,17.38-16.41,28.92-.8,1.66-1.59,3.33-2.37,4.98-.17,.36-.34,.72-.5,1.09-1.79,3.83-3.48,7.57-5.01,11.02-.19,.43-.38,.87-.57,1.3-1.55,3.5-2.92,6.67-4.03,9.28-.11,.27-.22,.53-.33,.78-.91,2.14-1.63,3.85-2.1,5-.07,.16-.13,.3-.18,.43-.03,.08-.06,.15-.09,.21-.03,.07-.05,.13-.07,.2l-.14,.32-.05,.13s-.04,.08-.05,.11l-.04,.09c-.04,.09-.06,.14-.06,.14h-28c-4.05-5.4,.55-9.88,6.12-14.07,2.69-2.02,5.6-3.98,7.88-5.93,4.26-3.65,3.34-10.26,1.96-16.68-.89-4.13-1.96-8.19-1.96-11.32,0-6.05,4-6.38,10.71-8.78,2.16-.77,4.61-1.76,7.29-3.22,11-6,18-38,15-48h-.24c-.06-15.76-2.13-31.6-7.32-44.94-5.24-13.47-13.33-23.61-21.94-31.6-24.46-22.73-53.31-29.74-79.79-45.79-4.03-2.45-8.25-5.42-10.6-11.18-2.95-7.27-2.08-16.74-1.09-25.25,1.45-12.47,3.62-26.6,10.67-32.54,4.56-3.85,10.02-3.17,15.18-3.55,13.07-.96,27.59-13.08,29.13-33.72,.84-11.28-2.39-22.17-4.87-32.83-2.47-10.66-4.16-23.13-.55-32.94,3.7-10.06,11.55-13.69,17.67-20.11,2.97-3.11,5.55-7.05,7.68-11.55h26.65c-4.29,15.34-8.58,30.67-12.87,46.01-1.75,6.24-3.54,12.93-2.89,19.69,.62,6.45,3.36,11.79,5.21,17.61,3.39,10.66,3.81,23.6,1.12,34.75-4.96,20.54-19.76,35.72-18.51,57.63,.96,16.74,10.99,27.83,19.91,36.89,15.51,15.78,30.85,33.07,41.94,56.44,7.82,16.51,13.31,36.59,14.3,56.98h.21Z"/>
      <path class="cls-1" d="M234,374c-2.68,1.46-5.13,2.45-7.29,3.22-6.71,2.4-10.71,2.73-10.71,8.78,0,3.13,1.07,7.19,1.96,11.32,1.38,6.42,2.3,13.03-1.96,16.68-2.28,1.95-5.19,3.91-7.88,5.93-5.57,4.19-10.17,8.67-6.12,14.07h-42c.14-.22,.33-.53,.58-.92,.11-.17,.23-.35,.36-.56,.08-.12,.16-.24,.25-.37,.09-.15,.2-.31,.31-.47h0c.11-.17,.22-.34,.34-.52,.04-.04,.07-.09,.1-.14,.12-.16,.23-.33,.35-.51,.18-.25,.36-.51,.54-.78,.04-.06,.09-.12,.12-.18,.06-.07,.11-.15,.16-.23,.05-.06,.1-.12,.13-.19,.02-.01,.03-.02,.03-.03,.02-.02,.04-.05,.05-.07,.05-.07,.1-.14,.15-.22,.08-.11,.16-.23,.25-.35,.08-.11,.17-.23,.26-.35,.81-1.11,1.71-2.31,2.68-3.52,.29-.37,.59-.74,.89-1.11,.66-.8,1.35-1.6,2.04-2.38,.31-.33,.61-.66,.91-.99,.05-.04,.09-.09,.13-.13,.17-.18,.35-.37,.53-.55,.35-.36,.7-.71,1.06-1.06l.13-.13c.33-.32,.67-.63,1.01-.94,.34-.3,.68-.59,1.02-.87,.36-.3,.72-.58,1.08-.85,.55-.4,1.09-.77,1.62-1.1,.72-.43,1.43-.79,2.13-1.06,.03-.01,.06-.02,.08-.03,.22-.08,.44-.15,.66-.22,.06-.02,.13-.03,.19-.05,.18-.05,.35-.09,.52-.12,.81-.16,1.59-.17,2.34,0,9,2,21-15,19-22s-10-6-8-11,25-12,28-17,17-16,15-21-14-10-17-16h-.33c-14.56-34.48-34.41-63.31-57.41-83.03-11.09-9.51-22.89-16.97-33.39-28.03s-19.87-26.57-22.93-45.98c-4.36-27.69,7.26-59.65,24.77-66.05,4.79-1.75,9.8-1.76,14.53-3.87,10.7-4.76,19.19-23.45,15.74-40.23-1.09-5.32-3.21-9.99-4.34-15.3-2.91-13.77,1.24-29.06,2.88-43.51h43.41c-2.13,4.5-4.71,8.44-7.68,11.55-6.12,6.42-13.97,10.05-17.67,20.11-3.61,9.81-1.92,22.28,.55,32.94,2.48,10.66,5.71,21.55,4.87,32.83-1.54,20.64-16.06,32.76-29.13,33.72-5.16,.38-10.62-.3-15.18,3.55-7.05,5.94-9.22,20.07-10.67,32.54-.99,8.51-1.86,17.98,1.09,25.25,2.35,5.76,6.57,8.73,10.6,11.18,26.48,16.05,55.33,23.06,79.79,45.79,8.61,7.99,16.7,18.13,21.94,31.6,5.19,13.34,7.26,29.18,7.32,44.94h.24c3,10-4,42-15,48Z"/>
      <path class="cls-7" d="M222,363c-3,5-26,12-28,17s6,4,8,11-10,24-19,22c-.75-.17-1.53-.16-2.34,0-.17,.03-.34,.07-.52,.12-.06,.02-.13,.03-.19,.05-.22,.06-.44,.13-.66,.22-.02,0-.05,.02-.08,.03h-.02c-.21,.08-.41,.16-.62,.26-.47,.21-.94,.46-1.42,.75-.09,.05-.18,.1-.27,.16-.09,.06-.19,.12-.28,.18-.22,.13-.44,.28-.66,.44-.25,.17-.5,.35-.75,.54-.22,.17-.45,.35-.67,.53-1.89,1.53-3.77,3.44-5.51,5.44-.17,.2-.35,.41-.53,.62-.18,.2-.35,.41-.52,.61-.36,.44-.72,.88-1.08,1.32-.36,.45-.7,.88-1.03,1.32-.58,.75-1.13,1.48-1.64,2.18-.17,.23-.33,.46-.49,.69-.09,.12-.17,.24-.25,.35-.09,.11-.16,.22-.23,.32-.03,.07-.08,.13-.13,.19-.05,.08-.1,.16-.16,.23-.03,.06-.08,.12-.12,.18-.2,.27-.38,.53-.54,.78-.13,.18-.25,.35-.35,.51-.03,.05-.06,.1-.1,.14-.12,.18-.23,.35-.34,.51h0c-.11,.17-.22,.33-.31,.48-.09,.13-.17,.25-.25,.37-.13,.21-.25,.39-.36,.56-.25,.39-.44,.7-.58,.92h-27c-3-11-1-19,3-24,2.24-2.8,10.12-4.97,18.03-6.69,6.22-1.36,12.45-2.43,15.97-3.31,8-2,10-10,3-15-2.15-1.54-2.98-3.35-2.89-5.16,.12-2.56,2.05-5.09,4.66-6.8,1.58-1.04,3.4-1.78,5.23-2.04,3.82-.55,12.38-3.77,19.55-8.2h.01l11.29-20.32h0c-.94-8.33-3.85-16.48-3.85-16.48h-.29c-13.37-32.57-32.71-58.64-54.54-76.31-.81-.65-1.61-1.29-2.42-1.92-24.96-19.48-50.56-28.72-72.66-55.94-4.57-5.63-17.08-23.37-14.47-51.25,1.35-14.43,3.29-33.14,10.65-41.6,.11-.12,.21-.23,.31-.35,.1-.11,.2-.23,.31-.34,.17-.17,.33-.34,.51-.5,5.89-5.52,13.12-5.51,19.83-7.65,13.27-4.25,25.24-17.85,32.06-36.43,5.93-16.15,7.8-34.93,6.94-53.71h26.29c-1.64,14.45-5.79,29.74-2.88,43.51,1.13,5.31,3.25,9.98,4.34,15.3,3.45,16.78-5.04,35.47-15.74,40.23-4.73,2.11-9.74,2.12-14.53,3.87-17.51,6.4-29.13,38.36-24.77,66.05,3.06,19.41,12.43,34.92,22.93,45.98s22.3,18.52,33.39,28.03c23,19.72,42.85,48.55,57.41,83.03h.33c3,6,15,11,17,16s-12,16-15,21Z"/>
      <path class="cls-6" d="M163.24,429.13c.07-.1,.14-.21,.23-.32-.05,.08-.1,.15-.15,.22-.01,.02-.03,.05-.05,.07,0,.01-.01,.02-.03,.03Z"/>
      <path class="cls-6" d="M177.08,414.48c-.53,.33-1.07,.7-1.62,1.1-.36,.27-.72,.55-1.08,.85-.34,.28-.68,.57-1.02,.87-.34,.31-.68,.62-1.01,.94l-.13,.13c-.36,.35-.71,.7-1.06,1.06-.18,.18-.36,.37-.53,.55-.04,.04-.08,.09-.13,.13-.3,.33-.6,.66-.91,.99-.69,.78-1.38,1.58-2.04,2.38-.3,.37-.6,.74-.89,1.11-.97,1.21-1.87,2.41-2.68,3.52-.18,.24-.34,.47-.51,.7,.24-.34,.49-.69,.74-1.04,.51-.7,1.06-1.43,1.64-2.18,.33-.43,.68-.87,1.03-1.32,.36-.44,.72-.88,1.08-1.32,.17-.2,.34-.41,.52-.61,.18-.21,.36-.42,.53-.62,1.74-2,3.62-3.91,5.51-5.44,.22-.18,.45-.36,.67-.53,.25-.19,.5-.37,.75-.54,.22-.15,.44-.3,.66-.44,.09-.06,.19-.12,.28-.18,.07-.04,.13-.08,.2-.11Z"/>
      <path class="cls-6" d="M179.21,413.42c-.7,.27-1.41,.63-2.13,1.06,.02-.02,.05-.04,.07-.05,.48-.29,.95-.54,1.42-.75,.21-.1,.41-.18,.62-.26h.02Z"/>
      <path class="cls-7" d="M73.58,98.63c-.1,.12-.2,.23-.31,.35,.04-.05,.08-.11,.13-.16,.06-.06,.12-.13,.18-.19Z"/>
      <path class="cls-7" d="M149.75,247.77c-25.14-19.54-53.48-29.71-75.59-56.93-4.57-5.62-8.92-12.16-11.3-20.54-2.9-10.26-2.52-22.08-1.46-33.21,1.36-14.43,4.4-29.96,11.87-38.11-7.36,8.46-9.3,27.17-10.65,41.6-2.61,27.88,9.9,45.62,14.47,51.25,22.1,27.22,47.7,36.46,72.66,55.94Z"/>
      <path class="cls-7" d="M141.64,282.07c-16.48-14.78-38.22,6.62-46.53-14.49-8.3-21.1-29.74-5.72-34.39-12.43-4.47-6.45-3.32-39.2-6.64-54.65s-15.06-36.63-16.84-61.05c-1.77-24.43,11.39-50.42,22.12-68.13-10.73,17.71-14.38,44.1-12.6,68.53,1.77,24.42,8.38,47.3,15.89,68.8,2.92,8.39,6.07,16.79,10.54,23.24,4.65,6.71,10.48,10.96,16.28,14.8,17.46,11.59,35.69,20.6,52.17,35.38Z"/>
      <path class="cls-6" d="M140,356c-5.3,7.07-21.35,19.68-34.26,29.67-9.02,6.99-16.51,12.69-17.74,14.33-3,4-10,20-10,34H0v-22.02s0-13.98,19-13.98,36-3,39-20,7-32-8-24-27,8-33,2-17-6.52-17-6.52V0H78.15c-2.81,11.74-7.89,21.91-13.26,31.22-6.62,11.48-14.11,22.4-23.34,27.63-7.13,4.03-15.37,4.79-20.98,12.86-4.77,6.87-6.53,17.82-6.09,28.02,.44,10.21,2.78,19.93,5.1,29.46,3.44,14.14,6.88,28.27,10.32,42.4,2.6,10.7,5.25,21.81,4.82,33.25-.43,11.45-4.82,23.38-11.86,25.97-3.28,1.2-6.7,.3-10.07,.63-3.35,.35-7.05,2.49-8.37,7.41-1.84,6.87,1.89,14.12,5.47,18.95,16.23,21.92,36.03,37.08,56.93,43.58,14.37,4.48,29.13,4.91,43.58,8.72,10.33,2.72,20.77,7.45,29.68,15.9h-.08s9,18,0,30Z"/>
      <path class="cls-4" d="M367.61,164.75c-4.89,10.28-12.05,17.14-17.9,26.06-9.61,14.63-15.41,34.3-21.01,53.48-5.08,17.46-10.3,36.05-8.88,55.16,.7,9.6,3.02,18.42,6.25,26.55h-.07s9,26,8,31c-.7,3.52-18.29,22.93-29.66,35.84-4.78,5.41-8.45,9.68-9.34,11.16-3,5-4,30-4,30h-37v-.03s.04-.08,.04-.08c.02-.04,.03-.08,.05-.13,.05-.1,.1-.24,.16-.4,.09-.25,.21-.56,.35-.92,.03-.08,.06-.16,.09-.25,.1-.26,.19-.55,.3-.85,.13-.34,.26-.71,.39-1.09,.21-.59,.42-1.23,.63-1.9,.12-.37,.23-.74,.35-1.13,.05-.19,.11-.38,.17-.57,.12-.39,.23-.78,.33-1.17,.05-.2,.11-.39,.16-.59,.16-.59,.3-1.17,.42-1.74,.04-.19,.09-.38,.12-.57,.06-.3,.12-.58,.16-.87,.08-.45,.15-.88,.19-1.29,.03-.21,.05-.43,.06-.63,.02-.28,.03-.54,.03-.79,0-2.69,4.33-8.55,9.44-14.03,4.37-4.7,9.32-9.12,12.56-10.97,7-4,26-25,29-45,.34-.34,.42-1.24,.32-2.48,1.96-17.35-4.98-20.38-5.31-20.51h-.01s-.01-.01-.01-.01c-.98-3.47-1.73-7.11-2.21-10.85-3.82-30.03,9.26-58.66,11.79-89.04,2.04-24.52-3.3-50.33-14.1-68.14-9.26-15.28-21.91-24.42-31.45-39.26-15.3-23.83-20.85-60.63-17.59-94.27,.81-8.34,2.1-16.5,3.81-24.44h37.64c-4.08,9.94-7.92,20.02-9.8,31.43-1.72,10.42-1.68,21.35-1.51,32.12,.29,17.4,1.23,36.14,8.26,49.48,6.52,12.38,17.17,17.56,27.32,17.75,10.15,.19,20.11-3.95,30.05-7.2,7.89-2.58,17.36-3.85,22.77,5.63,5.46,9.53,3.54,25.26-1.36,35.54Z"/>
      <path class="cls-6" d="M375,93.94V228.72c-4.03,7.77-8.54,14.98-12.12,23.29-4.83,11.21-7.87,24.19-9.73,37.45-1.68,11.94-2.43,24.48-1.41,36.54,0,0-.74,9-3.74,12s-2,4,2,9-2,28-4,35c-1.6,5.61-13.49,12.51-19.69,16.06-1.53,.87-2.72,1.54-3.31,1.94-2.94,1.96-7.77,32.77-8,34-.01,.03-24,0-24,0,0,0,1-25,4-30,.89-1.48,4.56-5.75,9.34-11.16,11.37-12.91,28.96-32.32,29.66-35.84,1-5-8-31-8-31h.07c-3.23-8.13-5.55-16.95-6.25-26.55-1.42-19.11,3.8-37.7,8.88-55.16,5.6-19.18,11.4-38.85,21.01-53.48,5.85-8.92,13.01-15.78,17.9-26.06,4.9-10.28,6.82-26.01,1.36-35.54-5.41-9.48-14.88-8.21-22.77-5.63-9.94,3.25-19.9,7.39-30.05,7.2-10.15-.19-20.8-5.37-27.32-17.75-7.03-13.34-7.97-32.08-8.26-49.48-.17-10.77-.21-21.7,1.51-32.12,1.88-11.41,5.72-21.49,9.8-31.43h23.1c-1.72,31.72-14.24,73.18,2.61,90.85,9.27,9.72,41.74,6.88,51.06,16.47,2.13,2.19,4.17,4.61,6.08,7.26v-21c.1,.12,.18,.24,.27,.36Z"/>
      <path class="cls-6" d="M374.73,93.58v21c-1.91-2.65-3.95-5.07-6.08-7.26-9.32-9.59-41.79-6.75-51.06-16.47-16.85-17.67-4.33-59.13-2.61-90.85h11.03c-1.41,26,5.99,53.49,19.81,67.98,7.6,7.96,16.55,12.15,24.19,20.01,1.65,1.69,3.23,3.56,4.72,5.59Z"/>
      <path class="cls-2" d="M375,228.72v205.28s-60.01,.03-60,0c.23-1.23,5.06-32.04,8-34,.59-.4,1.78-1.07,3.31-1.94,6.2-3.55,18.09-10.45,19.69-16.06,2-7,8-30,4-35s-5-6-2-9,3.74-12,3.74-12c-1.02-12.06-.27-24.6,1.41-36.54,1.86-13.26,4.9-26.24,9.73-37.45,3.58-8.31,8.09-15.52,12.12-23.29Z"/>
      <path class="cls-2" d="M374.73,0V114.58c-1.91-2.65-3.95-5.07-6.08-7.26-9.32-9.59-41.79-6.75-51.06-16.47-16.85-17.67-4.33-59.13-2.61-90.85h59.75Z"/>
      <path class="cls-3" d="M73.58,98.63c-.1,.12-.2,.23-.31,.35,.04-.05,.08-.11,.13-.16,.06-.06,.12-.13,.18-.19Z"/>
      <path class="cls-3" d="M149.75,247.77c-25.14-19.54-53.48-29.71-75.59-56.93-4.57-5.62-8.92-12.16-11.3-20.54-2.9-10.26-2.52-22.08-1.46-33.21,1.36-14.43,4.4-29.96,11.87-38.11-7.36,8.46-9.3,27.17-10.65,41.6-2.61,27.88,9.9,45.62,14.47,51.25,22.1,27.22,47.7,36.46,72.66,55.94Z"/>
      <path class="cls-3" d="M141.64,282.07c-16.48-14.78-38.22,6.62-46.53-14.49-8.3-21.1-29.74-5.72-34.39-12.43-4.47-6.45-3.32-39.2-6.64-54.65s-15.06-36.63-16.84-61.05c-1.77-24.43,11.39-50.42,22.12-68.13-10.73,17.71-14.38,44.1-12.6,68.53,1.77,24.42,8.38,47.3,15.89,68.8,2.92,8.39,6.07,16.79,10.54,23.24,4.65,6.71,10.48,10.96,16.28,14.8,17.46,11.59,35.69,20.6,52.17,35.38Z"/>
      <path class="cls-1" d="M58,378c-3,17-20,20-39,20S0,411.98,0,411.98v-62.5s11,.52,17,6.52,18,6,33-2,11,7,8,24Z"/>
    </g>
  </g>
</svg>