<?xml version="1.0" encoding="utf-8"?>
<!-- Generator: Adobe Illustrator 27.0.1, SVG Export Plug-In . SVG Version: 6.00 Build 0)  -->
<svg version="1.1" xmlns="http://www.w3.org/2000/svg" xmlns:xlink="http://www.w3.org/1999/xlink" x="0px" y="0px"
	 viewBox="0 0 375 404.3" style="enable-background:new 0 0 375 404.3;" xml:space="preserve">
<style type="text/css">
	.st0{fill:#D8C9B6;stroke:#D8C9B6;stroke-miterlimit:10;}
	.st1{fill:#99734D;stroke:#99734D;stroke-miterlimit:10;}
	.st2{fill:#52F200;}
	.st3{fill:#AF8569;stroke:#AF8569;stroke-miterlimit:10;}
	.st4{fill:#D7BF9E;stroke:#D7BF9E;stroke-miterlimit:10;}
	.st5{fill:#936944;stroke:#936944;stroke-miterlimit:10;}
	.st6{fill:#B59272;stroke:#B59272;stroke-miterlimit:10;}
	.st7{fill:#B99980;stroke:#B99980;stroke-miterlimit:10;}
	.st8{display:none;clip-path:url(#SVGID_00000031168419546131550950000015286670955299215262_);}
	.st9{display:inline;}
	.st10{fill:#C9B19D;}
	.st11{fill:#AA856A;}
	.st12{fill:#A58A77;}
	.st13{fill:#BC9B84;}
	.st14{clip-path:url(#SVGID_00000085240534871515693140000007630724334767483044_);}
	.st15{display:none;}
	.st16{fill:#AF9884;stroke:#AF9884;stroke-miterlimit:10;}
	.st17{fill:#C1A693;stroke:#C1A693;stroke-miterlimit:10;}
	.st18{fill:#D3C5BE;stroke:#D3C5BE;stroke-miterlimit:10;}
	.st19{fill:#B59D8F;stroke:#B59D8F;stroke-miterlimit:10;}
	.st20{fill:#C9B19D;stroke:#C9B19D;stroke-miterlimit:10;}
	.st21{fill:#C4B1A1;stroke:#C4B1A1;stroke-miterlimit:10;}
	.st22{fill:#B29883;stroke:#B29883;stroke-miterlimit:10;}
	.st23{fill:#C4AFA1;stroke:#C4AFA1;stroke-miterlimit:10;}
</style>
<g id="Layer_2_00000047757442203661600970000004339632787420509119_">
	<rect class="st0" width="374.7" height="434"/>
	<g>
		<path class="st1" d="M140,801.7c-11.4,12.9-21.3,19.7-34.3,29.7c-9,7-16.5,12.7-17.7,14.3c-3,4-10,20-10,34H0v-22c0,0,0-14,19-14
			s36-3,39-20s7-32-8-24s-27,8-33,2s-17-6.5-17-6.5V445.7h78.2c-2.8,11.7-7.9,21.9-13.3,31.2c-6.6,11.5-14.1,22.4-23.3,27.6
			c-7.1,4-15.4,4.8-21,12.9c-4.8,6.9-6.5,17.8-6.1,28c0.4,10.2,2.8,19.9,5.1,29.5c3.4,14.1,6.9,28.3,10.3,42.4
			c2.6,10.7,5.3,21.8,4.8,33.2c-0.4,11.5-4.8,23.4-11.9,26c-3.3,1.2-6.7,0.3-10.1,0.6c-3.4,0.4-7.1,2.5-8.4,7.4
			c-1.8,6.9,1.9,14.1,5.5,19c16.2,21.9,36,37.1,56.9,43.6c14.4,4.5,29.1,4.9,43.6,8.7c10.3,2.7,20.8,7.5,29.7,15.9H140
			C140,771.7,151.4,788.9,140,801.7z"/>
		<path class="st2" d="M58,823.7c-3,17-20,20-39,20s-19,14-19,14v-62.5c0,0,11,0.5,17,6.5s18,6,33-2S61,806.7,58,823.7z"/>
		<path class="st3" d="M166.7,784.3c-4.2,4.4-9.4,9.2-12.7,14.4c-7,11-25,35-27,36s-16,17-12,27s4,18,4,18H78c0-14,7-30,10-34
			c1.2-1.6,8.7-7.3,17.7-14.3c12.9-10,29-22.6,34.3-29.7c9-12,4.5-23,0-30c-4.5-7-19.3-13.2-29.6-15.9c-14.4-3.8-29.2-4.2-43.6-8.7
			c-20.9-6.5-40.7-21.7-56.9-43.6c-3.6-4.8-7.3-12.1-5.5-18.9c1.3-4.9,5-7.1,8.4-7.4c3.4-0.3,6.8,0.6,10.1-0.6
			c7-2.6,11.4-14.5,11.9-26c0.4-11.4-2.2-22.6-4.8-33.2c-3.4-14.1-6.9-28.3-10.3-42.4c-2.3-9.5-4.7-19.2-5.1-29.5
			c-0.4-10.2,1.3-21.1,6.1-28c5.6-8.1,13.9-8.8,21-12.9c9.2-5.2,16.7-16.2,23.3-27.6c5.4-9.3,10.4-19.5,13.3-31.2h39.1
			c0.8,0,1.3,0,1.6,0c0.4,2.1,0,6.6-2.1,15.1c-6.2,25.2-17.8,33.2-21.6,35.8c-3.8,2.6-14.9,2.7-17.6,3c-2.6,0.3-12.6,8.4-17.9,17
			c-0.1,0.1-0.2,0.3-0.3,0.4c-10.7,17.7-23.9,43.7-22.1,68.1c1.8,24.4,13.5,45.6,16.8,61s2.2,48.2,6.6,54.7
			c4.6,6.7,26.1-8.7,34.4,12.4c8.3,21.1,30.1-0.3,46.5,14.5c12.1,10.9,23.5,25.6,31,43.9h0.3C174.6,775.4,171.2,779.6,166.7,784.3
			L166.7,784.3z"/>
		<path class="st2" d="M177.1,860.2c-0.5,0.3-1.1,0.7-1.6,1.1c-0.4,0.3-0.7,0.5-1.1,0.9c-0.3,0.3-0.7,0.6-1,0.9
			c-0.3,0.3-0.7,0.6-1,0.9l-0.1,0.1c-0.4,0.3-0.7,0.7-1.1,1.1c-0.2,0.2-0.4,0.4-0.5,0.5c0,0-0.1,0.1-0.1,0.1c-0.3,0.3-0.6,0.7-0.9,1
			c-0.7,0.8-1.4,1.6-2,2.4c-0.3,0.4-0.6,0.7-0.9,1.1c-1,1.2-1.9,2.4-2.7,3.5c-0.2,0.2-0.3,0.5-0.5,0.7c0.2-0.3,0.5-0.7,0.7-1
			c0.5-0.7,1.1-1.4,1.6-2.2c0.3-0.4,0.7-0.9,1-1.3c0.4-0.4,0.7-0.9,1.1-1.3c0.2-0.2,0.3-0.4,0.5-0.6c0.2-0.2,0.4-0.4,0.5-0.6
			c1.7-2,3.6-3.9,5.5-5.4c0.2-0.2,0.4-0.4,0.7-0.5c0.2-0.2,0.5-0.4,0.8-0.5c0.2-0.2,0.4-0.3,0.7-0.4c0.1-0.1,0.2-0.1,0.3-0.2
			C177,860.3,177,860.2,177.1,860.2L177.1,860.2z"/>
		<path class="st2" d="M179.2,859.1c-0.7,0.3-1.4,0.6-2.1,1.1c0,0,0.1,0,0.1,0c0.5-0.3,0.9-0.5,1.4-0.8
			C178.8,859.3,179,859.2,179.2,859.1L179.2,859.1z"/>
		<path class="st2" d="M243.7,873.3l-2.7,6.4C241,878.2,242.1,875.9,243.7,873.3z"/>
		<path class="st3" d="M313.6,671.8c-2.5,30.4-15.6,59-11.8,89c0.5,3.7,1.2,7.4,2.2,10.8h0c0.3,0.1,7.3,3.2,5.3,20.5
			c-0.1,0.8-0.2,1.6-0.3,2.5c-3,20-22,41-29,45c-3.2,1.9-8.2,6.3-12.6,11c-5.1,5.5-9.4,11.3-9.4,14c0,0.2,0,0.5,0,0.8
			c0,0.2,0,0.4-0.1,0.6c0,0.4-0.1,0.8-0.2,1.3c0,0.3-0.1,0.6-0.2,0.9c0,0.2-0.1,0.4-0.1,0.6c-0.1,0.6-0.3,1.2-0.4,1.7
			c0,0.2-0.1,0.4-0.2,0.6c-0.1,0.4-0.2,0.8-0.3,1.2c-0.1,0.2-0.1,0.4-0.2,0.6c-0.1,0.4-0.2,0.8-0.4,1.1c-0.2,0.7-0.4,1.3-0.6,1.9
			c-0.1,0.4-0.3,0.8-0.4,1.1c-0.1,0.3-0.2,0.6-0.3,0.9c0,0.1-0.1,0.2-0.1,0.2c-0.1,0.4-0.3,0.7-0.4,0.9c-0.1,0.2-0.1,0.3-0.2,0.4
			c0,0,0,0.1-0.1,0.1l0,0.1v0h-13c0-4,1.1-3.8,2.7-6.4c3.5-5.8,9-13.2,8.3-16.6c-0.2-1-0.2-2-0.1-3.1c0.2-2.5,1.3-5.1,3-7.2
			c1.1-1.4,2.5-2.7,4.1-3.7c5-3,27-34,26-43s1-28,1-28h-0.1c-4.2-12.7-8-25.4-6.8-39.2c1.5-18,11.5-32.6,12-50.8
			c0.1-3.9-0.3-7.9-1.6-11.1c-1.1-2.5-2.6-4.4-4.3-6c-16.7-16.6-40.5-12.3-54.1-34.8c-4-6.7-6.8-16.9-4.1-25.1
			c3.1-9.6,11.4-10.9,16.7-17.7c6.6-8.5,7.2-24.7,3.9-37.1c-3.3-12.4-9.7-21.8-15.9-31.1c-1.4-2.1-2.8-4.3-3.4-7.2
			c-0.7-3.8,0.2-7.9,1.2-11.6c2.1-8.4,8.4-8.9,7.5-24.6c-0.8-15.6-0.9-13.3,1.9-17.7c2-3.1,1.3-8,2.4-12.1h13
			c-1.7,7.9-3,16.1-3.8,24.4c-3.3,33.6,2.3,70.4,17.6,94.3c9.5,14.8,22.2,24,31.5,39.3C310.3,621.5,315.6,647.3,313.6,671.8
			L313.6,671.8z"/>
		<path class="st3" d="M238.9,457.8c-2.8,4.4-2.7,2.1-1.9,17.7c0.8,15.6-5.4,16.2-7.5,24.6c2.1-8.4,4.3-16.8,6.4-25.1
			c-3.9-2.9-1.3-12.2,1.2-17.8c1.6-3.6,3-7.4,4.2-11.4C240.1,449.7,240.8,454.7,238.9,457.8L238.9,457.8z"/>
		<path class="st4" d="M278,771.7c0,0-4,29-16,44c-4.8,6-10.9,17.4-16.4,28.9c-0.8,1.7-1.6,3.3-2.4,5c-0.2,0.4-0.3,0.7-0.5,1.1
			c-1.8,3.8-3.5,7.6-5,11c-0.2,0.4-0.4,0.9-0.6,1.3c-1.6,3.5-2.9,6.7-4,9.3c-0.1,0.3-0.2,0.5-0.3,0.8c-0.9,2.1-1.6,3.9-2.1,5
			c-0.1,0.2-0.1,0.3-0.2,0.4c0,0.1-0.1,0.2-0.1,0.2c0,0.1-0.1,0.1-0.1,0.2l-0.1,0.3l-0.1,0.1c0,0,0,0.1-0.1,0.1l0,0.1
			c0,0.1-0.1,0.1-0.1,0.1h-28c-4.1-5.4,0.6-9.9,6.1-14.1c2.7-2,5.6-4,7.9-5.9c4.3-3.6,3.3-10.3,2-16.7c-0.9-4.1-2-8.2-2-11.3
			c0-6,4-6.4,10.7-8.8c2.2-0.8,4.6-1.8,7.3-3.2c11-6,18-38,15-48h-0.2c-0.1-15.8-2.1-31.6-7.3-44.9c-5.2-13.5-13.3-23.6-21.9-31.6
			c-24.5-22.7-53.3-29.7-79.8-45.8c-4-2.4-8.2-5.4-10.6-11.2c-2.9-7.3-2.1-16.7-1.1-25.2c1.4-12.5,3.6-26.6,10.7-32.5
			c4.6-3.9,10-3.2,15.2-3.5c13.1-1,27.6-13.1,29.1-33.7c0.8-11.3-2.4-22.2-4.9-32.8c-2.5-10.7-4.2-23.1-0.6-32.9
			c3.7-10.1,11.6-13.7,17.7-20.1c3-3.1,5.6-7,7.7-11.5h26.6c-4.3,15.3-8.6,30.7-12.9,46c-1.8,6.2-3.5,12.9-2.9,19.7
			c0.6,6.4,3.4,11.8,5.2,17.6c3.4,10.7,3.8,23.6,1.1,34.8c-5,20.5-19.8,35.7-18.5,57.6c1,16.7,11,27.8,19.9,36.9
			c15.5,15.8,30.9,33.1,41.9,56.4c7.8,16.5,13.3,36.6,14.3,57H278L278,771.7z"/>
		<path class="st5" d="M234,819.7c-2.7,1.5-5.1,2.5-7.3,3.2c-6.7,2.4-10.7,2.7-10.7,8.8c0,3.1,1.1,7.2,2,11.3c1.4,6.4,2.3,13-2,16.7
			c-2.3,2-5.2,3.9-7.9,5.9c-5.6,4.2-10.2,8.7-6.1,14.1h-42c0.1-0.2,0.3-0.5,0.6-0.9c0.1-0.2,0.2-0.4,0.4-0.6
			c0.1-0.1,0.2-0.2,0.2-0.4c0.1-0.2,0.2-0.3,0.3-0.5l0,0c0.1-0.2,0.2-0.3,0.3-0.5c0,0,0.1-0.1,0.1-0.1c0.1-0.2,0.2-0.3,0.4-0.5
			c0.2-0.2,0.4-0.5,0.5-0.8c0-0.1,0.1-0.1,0.1-0.2c0.1-0.1,0.1-0.1,0.2-0.2c0.1-0.1,0.1-0.1,0.1-0.2c0,0,0,0,0,0c0,0,0,0,0.1-0.1
			c0.1-0.1,0.1-0.1,0.1-0.2c0.1-0.1,0.2-0.2,0.2-0.4c0.1-0.1,0.2-0.2,0.3-0.3c0.8-1.1,1.7-2.3,2.7-3.5c0.3-0.4,0.6-0.7,0.9-1.1
			c0.7-0.8,1.4-1.6,2-2.4c0.3-0.3,0.6-0.7,0.9-1c0.1,0,0.1-0.1,0.1-0.1c0.2-0.2,0.4-0.4,0.5-0.5c0.4-0.4,0.7-0.7,1.1-1.1l0.1-0.1
			c0.3-0.3,0.7-0.6,1-0.9c0.3-0.3,0.7-0.6,1-0.9c0.4-0.3,0.7-0.6,1.1-0.8c0.6-0.4,1.1-0.8,1.6-1.1c0.7-0.4,1.4-0.8,2.1-1.1
			c0,0,0.1,0,0.1,0c0.2-0.1,0.4-0.2,0.7-0.2c0.1,0,0.1,0,0.2,0c0.2,0,0.4-0.1,0.5-0.1c0.8-0.2,1.6-0.2,2.3,0c9,2,21-15,19-22
			s-10-6-8-11s25-12,28-17s17-16,15-21c-1.3-3.2-10.2-2.2-14.7-5.7c-2.5-2-1.2-8.1-2.3-10.3h-0.3c-14.6-34.5-34.4-63.3-57.4-83
			c-11.1-9.5-22.9-17-33.4-28s-19.9-26.6-22.9-46c-4.4-27.7,7.3-59.7,24.8-66c4.8-1.8,9.8-1.8,14.5-3.9
			c10.7-4.8,19.2-23.5,15.7-40.2c-1.1-5.3-3.2-10-4.3-15.3c-2.9-13.8,1.2-29.1,2.9-43.5h43.4c-2.1,4.5-4.7,8.4-7.7,11.5
			c-6.1,6.4-14,10.1-17.7,20.1c-3.6,9.8-1.9,22.3,0.6,32.9c2.5,10.7,5.7,21.5,4.9,32.8c-1.5,20.6-16.1,32.8-29.1,33.7
			c-5.2,0.4-10.6-0.3-15.2,3.5c-7.1,5.9-9.2,20.1-10.7,32.5c-1,8.5-1.9,18,1.1,25.2c2.4,5.8,6.6,8.7,10.6,11.2
			c26.5,16,55.3,23.1,79.8,45.8c8.6,8,16.7,18.1,21.9,31.6c5.2,13.3,7.3,29.2,7.3,44.9h0.2C252,781.7,245,813.7,234,819.7L234,819.7
			z"/>
		<path class="st3" d="M222,808.7c-3,5-26,12-28,17s6,4,8,11s-10,24-19,22c-0.8-0.2-1.5-0.2-2.3,0c-0.2,0-0.3,0.1-0.5,0.1
			c-0.1,0-0.1,0-0.2,0c-0.2,0.1-0.4,0.1-0.7,0.2c0,0-0.1,0-0.1,0h0c-0.2,0.1-0.4,0.2-0.6,0.3c-0.5,0.2-0.9,0.5-1.4,0.8
			c-0.1,0-0.2,0.1-0.3,0.2c-0.1,0.1-0.2,0.1-0.3,0.2c-0.2,0.1-0.4,0.3-0.7,0.4c-0.2,0.2-0.5,0.3-0.8,0.5c-0.2,0.2-0.4,0.4-0.7,0.5
			c-1.9,1.5-3.8,3.4-5.5,5.4c-0.2,0.2-0.4,0.4-0.5,0.6c-0.2,0.2-0.4,0.4-0.5,0.6c-0.4,0.4-0.7,0.9-1.1,1.3c-0.4,0.5-0.7,0.9-1,1.3
			c-0.6,0.8-1.1,1.5-1.6,2.2c-0.2,0.2-0.3,0.5-0.5,0.7c-0.1,0.1-0.2,0.2-0.2,0.3c-0.1,0.1-0.2,0.2-0.2,0.3c0,0.1-0.1,0.1-0.1,0.2
			c-0.1,0.1-0.1,0.2-0.2,0.2c0,0.1-0.1,0.1-0.1,0.2c-0.2,0.3-0.4,0.5-0.5,0.8c-0.1,0.2-0.2,0.4-0.4,0.5c0,0-0.1,0.1-0.1,0.1
			c-0.1,0.2-0.2,0.4-0.3,0.5l0,0c-0.1,0.2-0.2,0.3-0.3,0.5c-0.1,0.1-0.2,0.2-0.2,0.4c-0.1,0.2-0.2,0.4-0.4,0.6
			c-0.2,0.4-0.4,0.7-0.6,0.9h-27c-3-11-1-19,3-24c2.2-2.8,10.1-5,18-6.7c6.2-1.4,12.4-2.4,16-3.3c8-2,10-10,3-15
			c-2.1-1.5-3-3.3-2.9-5.2c0.1-2.6,2.1-5.1,4.7-6.8c1.6-1,3.4-1.8,5.2-2c3.8-0.5,12.4-3.8,19.6-8.2h0l11.3-20.3l0,0
			c-0.9-8.3-3.9-16.5-3.9-16.5h-0.3c-13.4-32.6-32.7-58.6-54.5-76.3c-0.8-0.7-1.6-1.3-2.4-1.9c-25-19.5-50.6-28.7-72.7-55.9
			c-4.6-5.6-17.1-23.4-14.5-51.2c1.3-14.4,3.3-33.1,10.7-41.6c0.1-0.1,0.2-0.2,0.3-0.3c0.1-0.1,0.2-0.2,0.3-0.3
			c0.2-0.2,0.3-0.3,0.5-0.5c5.9-5.5,13.1-5.5,19.8-7.6c13.3-4.2,25.2-17.9,32.1-36.4c5.9-16.1,7.8-34.9,6.9-53.7h26.3
			c-1.6,14.5-5.8,29.7-2.9,43.5c1.1,5.3,3.2,10,4.3,15.3c3.4,16.8-5,35.5-15.7,40.2c-4.7,2.1-9.7,2.1-14.5,3.9
			c-17.5,6.4-29.1,38.4-24.8,66.1c3.1,19.4,12.4,34.9,22.9,46s22.3,18.5,33.4,28c23,19.7,54.9,71,57.4,83c2.5,12,15.3,11,17.3,16
			S225,803.7,222,808.7L222,808.7z"/>
		<path class="st1" d="M163.2,874.9c0.1-0.1,0.1-0.2,0.2-0.3C163.4,874.6,163.4,874.7,163.2,874.9
			C163.3,874.8,163.3,874.8,163.2,874.9C163.3,874.8,163.3,874.8,163.2,874.9z"/>
		<path class="st1" d="M177.1,860.2c-0.5,0.3-1.1,0.7-1.6,1.1c-0.4,0.3-0.7,0.5-1.1,0.9c-0.3,0.3-0.7,0.6-1,0.9
			c-0.3,0.3-0.7,0.6-1,0.9l-0.1,0.1c-0.4,0.3-0.7,0.7-1.1,1.1c-0.2,0.2-0.4,0.4-0.5,0.5c0,0-0.1,0.1-0.1,0.1c-0.3,0.3-0.6,0.7-0.9,1
			c-0.7,0.8-1.4,1.6-2,2.4c-0.3,0.4-0.6,0.7-0.9,1.1c-1,1.2-1.9,2.4-2.7,3.5c-0.2,0.2-0.3,0.5-0.5,0.7c0.2-0.3,0.5-0.7,0.7-1
			c0.5-0.7,1.1-1.4,1.6-2.2c0.3-0.4,0.7-0.9,1-1.3c0.4-0.4,0.7-0.9,1.1-1.3c0.2-0.2,0.3-0.4,0.5-0.6c0.2-0.2,0.4-0.4,0.5-0.6
			c1.7-2,3.6-3.9,5.5-5.4c0.2-0.2,0.4-0.4,0.7-0.5c0.2-0.2,0.5-0.4,0.8-0.5c0.2-0.2,0.4-0.3,0.7-0.4c0.1-0.1,0.2-0.1,0.3-0.2
			C177,860.3,177,860.2,177.1,860.2L177.1,860.2z"/>
		<path class="st1" d="M179.2,859.1c-0.7,0.3-1.4,0.6-2.1,1.1c0,0,0.1,0,0.1,0c0.5-0.3,0.9-0.5,1.4-0.8
			C178.8,859.3,179,859.2,179.2,859.1L179.2,859.1z"/>
		<path class="st3" d="M73.6,544.4c-0.1,0.1-0.2,0.2-0.3,0.4c0-0.1,0.1-0.1,0.1-0.2C73.5,544.5,73.5,544.4,73.6,544.4z"/>
		<path class="st3" d="M149.8,693.5c-25.1-19.5-53.5-29.7-75.6-56.9c-4.6-5.6-8.9-12.2-11.3-20.5c-2.9-10.3-2.5-22.1-1.5-33.2
			c1.4-14.4,4.4-30,11.9-38.1c-7.4,8.5-9.3,27.2-10.7,41.6c-2.6,27.9,9.9,45.6,14.5,51.2C99.2,664.8,124.8,674,149.8,693.5
			L149.8,693.5z"/>
		<path class="st3" d="M141.6,727.8c-16.5-14.8-38.2,6.6-46.5-14.5c-8.3-21.1-29.7-5.7-34.4-12.4c-4.5-6.4-3.3-39.2-6.6-54.6
			s-15.1-36.6-16.8-61c-1.8-24.4,11.4-50.4,22.1-68.1c-10.7,17.7-14.4,44.1-12.6,68.5c1.8,24.4,8.4,47.3,15.9,68.8
			c2.9,8.4,6.1,16.8,10.5,23.2c4.7,6.7,10.5,11,16.3,14.8C106.9,704,125.2,713,141.6,727.8L141.6,727.8z"/>
		<path class="st1" d="M367.6,610.5c-4.9,10.3-12,17.1-17.9,26.1c-9.6,14.6-15.4,34.3-21,53.5c-5.1,17.5-10.3,36-8.9,55.2
			c0.7,9.6,3,18.4,6.2,26.5H326c0,0,9,26,8,31c-0.7,3.5-18.3,22.9-29.7,35.8c-4.8,5.4-8.5,9.7-9.3,11.2c-3,5-4,30-4,30h-37v0l0-0.1
			c0,0,0-0.1,0.1-0.1c0.1-0.1,0.1-0.2,0.2-0.4c0.1-0.2,0.2-0.6,0.4-0.9c0-0.1,0.1-0.2,0.1-0.2c0.1-0.3,0.2-0.5,0.3-0.9
			c0.1-0.3,0.3-0.7,0.4-1.1c0.2-0.6,0.4-1.2,0.6-1.9c0.1-0.4,0.2-0.7,0.4-1.1c0-0.2,0.1-0.4,0.2-0.6c0.1-0.4,0.2-0.8,0.3-1.2
			c0-0.2,0.1-0.4,0.2-0.6c0.2-0.6,0.3-1.2,0.4-1.7c0-0.2,0.1-0.4,0.1-0.6c0.1-0.3,0.1-0.6,0.2-0.9c0.1-0.5,0.1-0.9,0.2-1.3
			c0-0.2,0-0.4,0.1-0.6c0-0.3,0-0.5,0-0.8c0-2.7,4.3-8.5,9.4-14c4.4-4.7,9.3-9.1,12.6-11c7-4,26-25,29-45c0.2-1.1,0.2-1.2,0.3-2.5
			c2-17.4-4-17.5-5.3-20.5s0,0,0,0l0,0c-1-3.5-1.7-7.1-2.2-10.9c-3.8-30,9.3-58.7,11.8-89c2-24.5-3.3-50.3-14.1-68.1
			c-9.3-15.3-21.9-24.4-31.5-39.3c-15.3-23.8-20.9-60.6-17.6-94.3c0.8-8.3,2.1-16.5,3.8-24.4h37.6c-4.1,9.9-7.9,20-9.8,31.4
			c-1.7,10.4-1.7,21.4-1.5,32.1c0.3,17.4,1.2,36.1,8.3,49.5c6.5,12.4,17.2,17.6,27.3,17.8s20.1-3.9,30-7.2
			c7.9-2.6,17.4-3.9,22.8,5.6C374.4,584.5,372.5,600.2,367.6,610.5L367.6,610.5z"/>
		<path class="st1" d="M375,539.7v134.8c-4,7.8-8.5,15-12.1,23.3c-4.8,11.2-7.9,24.2-9.7,37.5c-1.7,11.9-2.4,24.5-1.4,36.5
			c0,0-0.7,9-3.7,12s-2,4,2,9s-2,28-4,35c-1.6,5.6-13.5,12.5-19.7,16.1c-1.5,0.9-2.7,1.5-3.3,1.9c-2.9,2-7.8,32.8-8,34
			c0,0-24,0-24,0s1-25,4-30c0.9-1.5,4.6-5.8,9.3-11.2c11.4-12.9,29-32.3,29.7-35.8c1-5-8-31-8-31h0.1c-3.2-8.1-5.5-17-6.2-26.5
			c-1.4-19.1,3.8-37.7,8.9-55.2c5.6-19.2,11.4-38.8,21-53.5c5.9-8.9,13-15.8,17.9-26.1c4.9-10.3,6.8-26,1.4-35.5
			c-5.4-9.5-14.9-8.2-22.8-5.6c-9.9,3.2-19.9,7.4-30,7.2s-20.8-5.4-27.3-17.8c-7-13.3-8-32.1-8.3-49.5c-0.2-10.8-0.2-21.7,1.5-32.1
			c1.9-11.4,5.7-21.5,9.8-31.4H315c-1.7,31.7-14.2,73.2,2.6,90.9c9.3,9.7,41.7,6.9,51.1,16.5c2.1,2.2,4.2,4.6,6.1,7.3v-21
			C374.8,539.4,374.9,539.5,375,539.7L375,539.7z"/>
		<path class="st1" d="M374.7,539.3v21c-1.9-2.7-4-5.1-6.1-7.3c-9.3-9.6-41.8-6.8-51.1-16.5c-16.9-17.7-4.3-59.1-2.6-90.9h11
			c-1.4,26,6,53.5,19.8,68c7.6,8,16.5,12.1,24.2,20C371.7,535.4,373.2,537.3,374.7,539.3L374.7,539.3z"/>
		<path class="st6" d="M375,674.4v205.3c0,0-60,0-60,0c0.2-1.2,5.1-32,8-34c0.6-0.4,1.8-1.1,3.3-1.9c6.2-3.5,18.1-10.5,19.7-16.1
			c2-7,8-30,4-35s-5-6-2-9s3.7-12,3.7-12c-1-12.1-0.3-24.6,1.4-36.5c1.9-13.3,4.9-26.2,9.7-37.5C366.5,689.4,371,682.2,375,674.4z"
			/>
		<path class="st6" d="M374.7,445.7v114.6c-1.9-2.7-4-5.1-6.1-7.3c-9.3-9.6-41.8-6.8-51.1-16.5c-16.9-17.7-4.3-59.1-2.6-90.9H374.7
			L374.7,445.7z"/>
		<path class="st7" d="M73.6,544.4c-0.1,0.1-0.2,0.2-0.3,0.4c0-0.1,0.1-0.1,0.1-0.2C73.5,544.5,73.5,544.4,73.6,544.4z"/>
		<path class="st7" d="M149.8,693.5c-25.1-19.5-53.5-29.7-75.6-56.9c-4.6-5.6-8.9-12.2-11.3-20.5c-2.9-10.3-2.5-22.1-1.5-33.2
			c1.4-14.4,4.4-30,11.9-38.1c-7.4,8.5-9.3,27.2-10.7,41.6c-2.6,27.9,9.9,45.6,14.5,51.2C99.2,664.8,124.8,674,149.8,693.5
			L149.8,693.5z"/>
		<path class="st5" d="M58,823.7c-3,17-20,20-39,20s-19,14-19,14v-62.5c0,0,11,0.5,17,6.5s18,6,33-2S61,806.7,58,823.7z"/>
		<path class="st1" d="M279.1,732.6c-1.2,13.8,7.2,29.4,6.9,39.2s-2,19-1,28s-21,40-26,43c-1.6,1-3,2.2-4.1,3.7
			c-1.7,2.2-2.8,4.7-3,7.2c-0.1,1.1-0.1,2.1,0.1,3.1c0.7,3.5-4.9,10.8-8.3,16.6c-1.5,2.6-2.7,4.8-2.7,6.4h-11c0,0,0,0,0.1-0.1l0-0.1
			c0,0,0-0.1,0.1-0.1l0-0.1l0.1-0.3c0-0.1,0-0.1,0.1-0.2c0-0.1,0.1-0.1,0.1-0.2c0-0.1,0.1-0.3,0.2-0.4c0.5-1.2,1.2-2.9,2.1-5
			c0.1-0.2,0.2-0.5,0.3-0.8c1.1-2.6,2.5-5.8,4-9.3c0.2-0.4,0.4-0.9,0.6-1.3c1.5-3.5,3.2-7.2,5-11c0.2-0.4,0.3-0.7,0.5-1.1
			c0.8-1.7,1.6-3.3,2.4-5c5.6-11.5,11.6-22.9,16.4-28.9c12-15,0.6-29-0.3-44.2c-0.9-15.2,9.6-40.3,1.8-56.8
			c-11.1-23.4-26.4-40.7-41.9-56.4c-8.9-9.1-19-20.2-19.9-36.9c-1.2-21.9,13.5-37.1,18.5-57.6c2.7-11.2,2.3-24.1-1.1-34.8
			c-1.9-5.8-4.6-11.2-5.2-17.6c-0.7-6.8,1.1-13.5,2.9-19.7c4.3-15.3,8.6-30.7,12.9-46h11.7c-1.1,4-0.5,8.9-2.4,12.1
			c-2.8,4.4-2.7,2.1-1.9,17.7c0.8,15.6-5.4,16.2-7.5,24.6c-1,3.7-1.9,7.8-1.2,11.6c0.6,2.9,2,5.1,3.4,7.2
			c6.2,9.2,12.6,18.7,15.9,31.1c3.3,12.4,2.7,28.6-3.9,37.1c-5.3,6.8-13.6,8.1-16.7,17.7c-2.7,8.2,0.1,18.5,4.1,25.1
			c13.7,22.5,37.4,18.2,54.1,34.8c1.6,1.6,3.2,3.5,4.3,6c1.4,3.2,1.7,7.3,1.6,11.1C290.6,700,280.7,714.5,279.1,732.6z"/>
		<path class="st7" d="M210.8,788.2c-0.7,4.4-5.8,17.3-11.3,20.3s0,0,0,0c-7.2,4.4-15.7,7.7-19.5,8.2c-1.8,0.3-3.7,1-5.2,2
			c-2.6,1.7-4.5,4.2-4.7,6.8c-0.1,1.8,0.7,3.6,2.9,5.2c7,5,5,13-3,15c-3.5,0.9-9.8,2-16,3.3c-7.9,1.7-15.8,3.9-18,6.7
			c-4,5-6,13-3,24h-14c0,0,0-8-4-18s10-26,12-27s20-25,27-36c3.4-5.3,8.5-10.1,12.7-14.4c4.5-4.7,6.5-7.2,6-12.6
			c-0.6-5.4-18.9-33-31-43.9c-16.5-14.8-38.2,6.6-46.5-14.5c-8.3-21.1-29.7-5.7-34.4-12.4c-4.5-6.5-3.3-39.2-6.6-54.7
			s-15.1-36.6-16.8-61c-1.8-24.4,11.4-50.4,22.1-68.1c0.1-0.1,0.2-0.3,0.3-0.4c5.4-8.6,15.4-16.7,17.9-17c2.6-0.3,13.8-0.4,17.5-3
			c3.8-2.6,15.4-10.5,21.6-35.8c2.1-8.5,2.5-12.9,2.1-15.1c-0.3,0-0.8,0-1.6,0h16c0.9,18.8-1,37.6-6.9,53.7
			c-6.8,18.6-18.8,32.2-32.1,36.4c-6.7,2.1-13.9,2.1-19.8,7.6c-0.2,0.2-0.3,0.3-0.5,0.5c-0.1,0.1-0.2,0.2-0.3,0.3
			c-0.1,0.1-0.1,0.1-0.2,0.2c-0.1,0-0.1,0.1-0.1,0.2c-7.5,8.2-10.5,23.7-11.9,38.1c-1.1,11.1-1.4,22.9,1.5,33.2
			c2.4,8.4,6.7,14.9,11.3,20.5c22.1,27.2,50.5,37.4,75.6,56.9c0.8,0.6,1.6,1.3,2.4,1.9c21.8,17.7,41.2,43.7,54.5,76.3
			C206.7,771.7,211.6,783.8,210.8,788.2z"/>
	</g>
	
		<image style="overflow:visible;" width="563" height="375" xlink:href="salon.jpg"  transform="matrix(0.572 0 0 0.572 433.9273 109.7575)">
	</image>
	<g>
		<defs>
			<rect id="SVGID_1_" x="-14.4" y="3.3" width="402.3" height="430.7"/>
		</defs>
		<clipPath id="SVGID_00000182528122008156876190000000540083011038395319_">
			<use xlink:href="#SVGID_1_"  style="overflow:visible;"/>
		</clipPath>
		<g style="display:none;clip-path:url(#SVGID_00000182528122008156876190000000540083011038395319_);">
			<g id="_x3C_Grid_Repeat_x3E__00000049917954104103440380000013870478460089190304_" class="st9">
				<path class="st10" d="M62.6,4.3l62.2,0c1.4,0,2.6,1.2,2.6,2.6l0,62.2c0,1.4-1.2,2.6-2.6,2.6h0C89,71.6,60,42.6,60,6.9v0
					C60,5.4,61.1,4.3,62.6,4.3z"/>
				<path class="st11" d="M62.6,77.9l62.2,0c1.4,0,2.6,1.2,2.6,2.6l0,62.2c0,1.4-1.2,2.6-2.6,2.6h0c-35.8,0-64.7-29-64.7-64.7v0
					C60,79.1,61.1,77.9,62.6,77.9z"/>
				<path class="st12" d="M51.4,71.9l-62.2,0c-1.4,0-2.6-1.2-2.6-2.6l0-62.2c0-1.4,1.2-2.6,2.6-2.6h0c35.8,0,64.7,29,64.7,64.7v0
					C53.9,70.7,52.8,71.9,51.4,71.9z"/>
				<path class="st13" d="M53.9,80.5l0,62.2c0,1.4-1.2,2.6-2.6,2.6l-62.2,0c-1.4,0-2.6-1.2-2.6-2.6v0c0-35.8,29-64.7,64.7-64.7h0
					C52.8,77.9,53.9,79.1,53.9,80.5z"/>
			</g>
			<g id="_x3C_Grid_Repeat_x3E__00000072246276068281871490000005544801073233283970_" class="st9">
				<path class="st10" d="M195.4,145.2l-62.2,0c-1.4,0-2.6-1.2-2.6-2.6l0-62.2c0-1.4,1.2-2.6,2.6-2.6h0c35.8,0,64.7,29,64.7,64.7v0
					C198,144.1,196.8,145.2,195.4,145.2z"/>
				<path class="st11" d="M195.4,71.6l-62.2,0c-1.4,0-2.6-1.2-2.6-2.6l0-62.2c0-1.4,1.2-2.6,2.6-2.6h0C169,4.3,198,33.3,198,69v0
					C198,70.4,196.8,71.6,195.4,71.6z"/>
				<path class="st12" d="M206.6,77.6l62.2,0c1.4,0,2.6,1.2,2.6,2.6v62.2c0,1.4-1.2,2.6-2.6,2.6h0C233,145,204,116,204,80.2v0
					C204,78.8,205.2,77.6,206.6,77.6z"/>
				<path class="st13" d="M204,69l0-62.2c0-1.4,1.2-2.6,2.6-2.6l62.2,0c1.4,0,2.6,1.2,2.6,2.6v0c0,35.8-29,64.7-64.7,64.7h0
					C205.2,71.6,204,70.4,204,69z"/>
			</g>
			<g id="_x3C_Grid_Repeat_x3E__00000179629701341952414880000004778821980431980961_" class="st9">
				<path class="st10" d="M350.7,4.3l62.2,0c1.4,0,2.6,1.2,2.6,2.6l0,62.2c0,1.4-1.2,2.6-2.6,2.6h0c-35.8,0-64.7-29-64.7-64.7v0
					C348.1,5.4,349.2,4.3,350.7,4.3z"/>
				<path class="st11" d="M350.7,77.9l62.2,0c1.4,0,2.6,1.2,2.6,2.6l0,62.2c0,1.4-1.2,2.6-2.6,2.6h0c-35.8,0-64.7-29-64.7-64.7v0
					C348.1,79.1,349.2,77.9,350.7,77.9z"/>
				<path class="st12" d="M339.5,71.9l-62.2,0c-1.4,0-2.6-1.2-2.6-2.6V7.1c0-1.4,1.2-2.6,2.6-2.6h0c35.8,0,64.7,29,64.7,64.7v0
					C342,70.7,340.9,71.9,339.5,71.9z"/>
				<path class="st13" d="M342,80.5l0,62.2c0,1.4-1.2,2.6-2.6,2.6l-62.2,0c-1.4,0-2.6-1.2-2.6-2.6v0c0-35.8,29-64.7,64.7-64.7h0
					C340.9,77.9,342,79.1,342,80.5z"/>
			</g>
			<g id="_x3C_Grid_Repeat_x3E__00000082331231352827453550000003502504366159194246_" class="st9">
				<path class="st10" d="M51.4,147.9l-62.2,0c-1.4,0-2.6,1.2-2.6,2.6l0,62.2c0,1.4,1.2,2.6,2.6,2.6h0c35.8,0,64.7-29,64.7-64.7v0
					C53.9,149,52.8,147.9,51.4,147.9z"/>
				<path class="st11" d="M51.4,221.5l-62.2,0c-1.4,0-2.6,1.2-2.6,2.6l0,62.2c0,1.4,1.2,2.6,2.6,2.6h0c35.8,0,64.7-29,64.7-64.7v0
					C53.9,222.7,52.8,221.5,51.4,221.5z"/>
				<path class="st12" d="M62.6,215.5l62.2,0c1.4,0,2.6-1.2,2.6-2.6l0-62.2c0-1.4-1.2-2.6-2.6-2.6h0c-35.8,0-64.7,29-64.7,64.7v0
					C60,214.3,61.1,215.5,62.6,215.5z"/>
				<path class="st13" d="M60,224.1l0,62.2c0,1.4,1.2,2.6,2.6,2.6l62.2,0c1.4,0,2.6-1.2,2.6-2.6v0c0-35.8-29-64.7-64.7-64.7h0
					C61.1,221.5,60,222.7,60,224.1z"/>
			</g>
			<g id="_x3C_Grid_Repeat_x3E__00000178169288792302794150000013231893379008905347_" class="st9">
				<path class="st10" d="M206.6,288.8h62.2c1.4,0,2.6-1.2,2.6-2.6l0-62.2c0-1.4-1.2-2.6-2.6-2.6h0c-35.8,0-64.7,29-64.7,64.7v0
					C204,287.7,205.2,288.8,206.6,288.8z"/>
				<path class="st11" d="M206.6,215.2l62.2,0c1.4,0,2.6-1.2,2.6-2.6l0-62.2c0-1.4-1.2-2.6-2.6-2.6h0c-35.8,0-64.7,29-64.7,64.7v0
					C204,214,205.2,215.2,206.6,215.2z"/>
				<path class="st12" d="M195.4,221.2l-62.2,0c-1.4,0-2.6,1.2-2.6,2.6l0,62.2c0,1.4,1.2,2.6,2.6,2.6h0c35.8,0,64.7-29,64.7-64.7v0
					C198,222.4,196.8,221.2,195.4,221.2z"/>
				<path class="st13" d="M198,212.6l0-62.2c0-1.4-1.2-2.6-2.6-2.6l-62.2,0c-1.4,0-2.6,1.2-2.6,2.6v0c0,35.8,29,64.7,64.7,64.7h0
					C196.8,215.2,198,214,198,212.6z"/>
			</g>
			<g id="_x3C_Grid_Repeat_x3E__00000003070400486374198110000004230553257131434887_" class="st9">
				<path class="st10" d="M339.5,147.9l-62.2,0c-1.4,0-2.6,1.2-2.6,2.6l0,62.2c0,1.4,1.2,2.6,2.6,2.6h0c35.8,0,64.7-29,64.7-64.7v0
					C342,149,340.9,147.9,339.5,147.9z"/>
				<path class="st11" d="M339.5,221.5l-62.2,0c-1.4,0-2.6,1.2-2.6,2.6l0,62.2c0,1.4,1.2,2.6,2.6,2.6h0c35.8,0,64.7-29,64.7-64.7v0
					C342,222.7,340.9,221.5,339.5,221.5z"/>
				<path class="st12" d="M350.7,215.5l62.2,0c1.4,0,2.6-1.2,2.6-2.6v-62.2c0-1.4-1.2-2.6-2.6-2.6h0c-35.8,0-64.7,29-64.7,64.7v0
					C348.1,214.3,349.2,215.5,350.7,215.5z"/>
				<path class="st13" d="M348.1,224.1l0,62.2c0,1.4,1.2,2.6,2.6,2.6l62.2,0c1.4,0,2.6-1.2,2.6-2.6v0c0-35.8-29-64.7-64.7-64.7h0
					C349.2,221.5,348.1,222.7,348.1,224.1z"/>
			</g>
			<g id="_x3C_Grid_Repeat_x3E__00000183213338456683084440000008048538064328807298_" class="st9">
				<path class="st10" d="M62.6,291.5h62.2c1.4,0,2.6,1.2,2.6,2.6l0,62.2c0,1.4-1.2,2.6-2.6,2.6h0C89,358.8,60,329.8,60,294v0
					C60,292.6,61.1,291.5,62.6,291.5z"/>
				<path class="st11" d="M62.6,365.1l62.2,0c1.4,0,2.6,1.2,2.6,2.6l0,62.2c0,1.4-1.2,2.6-2.6,2.6h0c-35.8,0-64.7-29-64.7-64.7v0
					C60,366.2,61.1,365.1,62.6,365.1z"/>
				<path class="st12" d="M51.4,359h-62.2c-1.4,0-2.6-1.2-2.6-2.6l0-62.2c0-1.4,1.2-2.6,2.6-2.6h0c35.8,0,64.7,29,64.7,64.7v0
					C53.9,357.9,52.8,359,51.4,359z"/>
				<path class="st13" d="M53.9,367.7l0,62.2c0,1.4-1.2,2.6-2.6,2.6l-62.2,0c-1.4,0-2.6-1.2-2.6-2.6v0c0-35.8,29-64.7,64.7-64.7h0
					C52.8,365.1,53.9,366.2,53.9,367.7z"/>
			</g>
			<g id="_x3C_Grid_Repeat_x3E__00000088096251644179758010000000956713099598881152_" class="st9">
				<path class="st10" d="M195.4,432.4h-62.2c-1.4,0-2.6-1.2-2.6-2.6l0-62.2c0-1.4,1.2-2.6,2.6-2.6h0c35.8,0,64.7,29,64.7,64.7v0
					C198,431.3,196.8,432.4,195.4,432.4z"/>
				<path class="st11" d="M195.4,358.8l-62.2,0c-1.4,0-2.6-1.2-2.6-2.6l0-62.2c0-1.4,1.2-2.6,2.6-2.6h0c35.8,0,64.7,29,64.7,64.7v0
					C198,357.6,196.8,358.8,195.4,358.8z"/>
				<path class="st12" d="M206.6,364.8h62.2c1.4,0,2.6,1.2,2.6,2.6v62.2c0,1.4-1.2,2.6-2.6,2.6h0c-35.8,0-64.7-29-64.7-64.7v0
					C204,366,205.2,364.8,206.6,364.8z"/>
				<path class="st13" d="M204,356.2l0-62.2c0-1.4,1.2-2.6,2.6-2.6l62.2,0c1.4,0,2.6,1.2,2.6,2.6v0c0,35.8-29,64.7-64.7,64.7h0
					C205.2,358.8,204,357.6,204,356.2z"/>
			</g>
			<g id="_x3C_Grid_Repeat_x3E__00000146500425480286223320000011996780822251045799_" class="st9">
				<path class="st10" d="M350.7,291.5h62.2c1.4,0,2.6,1.2,2.6,2.6l0,62.2c0,1.4-1.2,2.6-2.6,2.6h0c-35.8,0-64.7-29-64.7-64.7v0
					C348.1,292.6,349.2,291.5,350.7,291.5z"/>
				<path class="st11" d="M350.7,365.1l62.2,0c1.4,0,2.6,1.2,2.6,2.6l0,62.2c0,1.4-1.2,2.6-2.6,2.6h0c-35.8,0-64.7-29-64.7-64.7v0
					C348.1,366.2,349.2,365.1,350.7,365.1z"/>
				<path class="st12" d="M339.5,359h-62.2c-1.4,0-2.6-1.2-2.6-2.6v-62.2c0-1.4,1.2-2.6,2.6-2.6h0c35.8,0,64.7,29,64.7,64.7v0
					C342,357.9,340.9,359,339.5,359z"/>
				<path class="st13" d="M342,367.7l0,62.2c0,1.4-1.2,2.6-2.6,2.6l-62.2,0c-1.4,0-2.6-1.2-2.6-2.6v0c0-35.8,29-64.7,64.7-64.7h0
					C340.9,365.1,342,366.2,342,367.7z"/>
			</g>
		</g>
	</g>
</g>
<g id="Layer_4">
	<g>
		<defs>
			<rect id="SVGID_00000133500122381783305920000014258111175451465129_" x="-0.9" width="376.9" height="403.6"/>
		</defs>
		<clipPath id="SVGID_00000015348351089361044490000015789206872631339422_">
			<use xlink:href="#SVGID_00000133500122381783305920000014258111175451465129_"  style="overflow:visible;"/>
		</clipPath>
		<g style="clip-path:url(#SVGID_00000015348351089361044490000015789206872631339422_);">
			<g id="_x3C_Grid_Repeat_x3E__00000112634242388505127860000000638115326999406768_">
				<path class="st10" d="M71.1,0.9l58.2,0c1.3,0,2.4,1.1,2.4,2.4l0,58.2c0,1.3-1.1,2.4-2.4,2.4h0C95.9,64,68.7,36.9,68.7,3.4v0
					C68.7,2,69.8,0.9,71.1,0.9z"/>
				<path class="st11" d="M71.1,69.9l58.2,0c1.3,0,2.4,1.1,2.4,2.4l0,58.2c0,1.3-1.1,2.4-2.4,2.4h0c-33.5,0-60.7-27.2-60.7-60.7v0
					C68.7,71,69.8,69.9,71.1,69.9z"/>
				<path class="st12" d="M60.6,64.3l-58.2,0c-1.3,0-2.4-1.1-2.4-2.4L0,3.6c0-1.3,1.1-2.4,2.4-2.4h0c33.5,0,60.7,27.2,60.7,60.7v0
					C63.1,63.2,62,64.3,60.6,64.3z"/>
				<path class="st13" d="M63.1,72.4l0,58.2c0,1.3-1.1,2.4-2.4,2.4l-58.2,0c-1.3,0-2.4-1.1-2.4-2.4v0c0-33.5,27.2-60.7,60.7-60.7h0
					C62,69.9,63.1,71,63.1,72.4z"/>
			</g>
			<g id="_x3C_Grid_Repeat_x3E__00000090277061646889548350000003190977429918978740_">
				<path class="st10" d="M195.6,133l-58.2,0c-1.3,0-2.4-1.1-2.4-2.4l0-58.2c0-1.3,1.1-2.4,2.4-2.4h0c33.5,0,60.7,27.2,60.7,60.7v0
					C198,131.9,196.9,133,195.6,133z"/>
				<path class="st11" d="M195.6,64l-58.2,0c-1.3,0-2.4-1.1-2.4-2.4l0-58.2c0-1.3,1.1-2.4,2.4-2.4h0c33.5,0,60.7,27.2,60.7,60.7v0
					C198,62.9,196.9,64,195.6,64z"/>
				<path class="st12" d="M206.1,69.7l58.2,0c1.3,0,2.4,1.1,2.4,2.4l0,58.2c0,1.3-1.1,2.4-2.4,2.4h0c-33.5,0-60.7-27.2-60.7-60.7v0
					C203.7,70.8,204.8,69.7,206.1,69.7z"/>
				<path class="st13" d="M203.7,61.6l0-58.2c0-1.3,1.1-2.4,2.4-2.4l58.2,0c1.3,0,2.4,1.1,2.4,2.4v0c0,33.5-27.2,60.7-60.7,60.7h0
					C204.8,64,203.7,62.9,203.7,61.6z"/>
			</g>
			<g id="_x3C_Grid_Repeat_x3E__00000139274141255255674220000000867396971181487259_">
				<path class="st10" d="M341.1,0.9l58.2,0c1.3,0,2.4,1.1,2.4,2.4l0,58.2c0,1.3-1.1,2.4-2.4,2.4h0c-33.5,0-60.7-27.2-60.7-60.7v0
					C338.6,2,339.7,0.9,341.1,0.9z"/>
				<path class="st11" d="M341.1,69.9l58.2,0c1.3,0,2.4,1.1,2.4,2.4v58.2c0,1.3-1.1,2.4-2.4,2.4h0c-33.5,0-60.7-27.2-60.7-60.7v0
					C338.6,71,339.7,69.9,341.1,69.9z"/>
				<path class="st12" d="M330.5,64.3l-58.2,0c-1.3,0-2.4-1.1-2.4-2.4l0-58.2c0-1.3,1.1-2.4,2.4-2.4h0c33.5,0,60.7,27.2,60.7,60.7v0
					C333,63.2,331.9,64.3,330.5,64.3z"/>
				<path class="st13" d="M333,72.4l0,58.2c0,1.3-1.1,2.4-2.4,2.4l-58.2,0c-1.3,0-2.4-1.1-2.4-2.4v0c0-33.5,27.2-60.7,60.7-60.7h0
					C331.9,69.9,333,71,333,72.4z"/>
			</g>
			<g id="_x3C_Grid_Repeat_x3E__00000078723891130959009710000008474393197045237388_">
				<path class="st10" d="M60.6,135.5l-58.2,0c-1.3,0-2.4,1.1-2.4,2.4l0,58.2c0,1.3,1.1,2.4,2.4,2.4h0c33.5,0,60.7-27.2,60.7-60.7v0
					C63.1,136.6,62,135.5,60.6,135.5z"/>
				<path class="st11" d="M60.6,204.5l-58.2,0c-1.3,0-2.4,1.1-2.4,2.4l0,58.2c0,1.3,1.1,2.4,2.4,2.4h0c33.5,0,60.7-27.2,60.7-60.7v0
					C63.1,205.5,62,204.5,60.6,204.5z"/>
				<path class="st12" d="M71.1,198.8l58.2,0c1.3,0,2.4-1.1,2.4-2.4l0-58.2c0-1.3-1.1-2.4-2.4-2.4h0c-33.5,0-60.7,27.2-60.7,60.7v0
					C68.7,197.7,69.8,198.8,71.1,198.8z"/>
				<path class="st13" d="M68.7,206.9l0,58.2c0,1.3,1.1,2.4,2.4,2.4l58.2,0c1.3,0,2.4-1.1,2.4-2.4v0c0-33.5-27.2-60.7-60.7-60.7h0
					C69.8,204.5,68.7,205.5,68.7,206.9z"/>
			</g>
			<g id="_x3C_Grid_Repeat_x3E__00000029039630896962684540000011073246616869064122_">
				<path class="st10" d="M206.1,267.5l58.2,0c1.3,0,2.4-1.1,2.4-2.4l0-58.2c0-1.3-1.1-2.4-2.4-2.4h0c-33.5,0-60.7,27.2-60.7,60.7v0
					C203.7,266.4,204.8,267.5,206.1,267.5z"/>
				<path class="st11" d="M206.1,198.5l58.2,0c1.3,0,2.4-1.1,2.4-2.4v-58.2c0-1.3-1.1-2.4-2.4-2.4h0c-33.5,0-60.7,27.2-60.7,60.7v0
					C203.7,197.5,204.8,198.5,206.1,198.5z"/>
				<path class="st12" d="M195.6,204.2l-58.2,0c-1.3,0-2.4,1.1-2.4,2.4l0,58.2c0,1.3,1.1,2.4,2.4,2.4h0c33.5,0,60.7-27.2,60.7-60.7
					v0C198,205.3,196.9,204.2,195.6,204.2z"/>
				<path class="st13" d="M198,196.1l0-58.2c0-1.3-1.1-2.4-2.4-2.4l-58.2,0c-1.3,0-2.4,1.1-2.4,2.4v0c0,33.5,27.2,60.7,60.7,60.7h0
					C196.9,198.5,198,197.5,198,196.1z"/>
			</g>
			<g id="_x3C_Grid_Repeat_x3E__00000118391399915718938400000012431107884283480729_">
				<path class="st10" d="M330.6,135.5l-58.2,0c-1.3,0-2.4,1.1-2.4,2.4v58.2c0,1.3,1.1,2.4,2.4,2.4h0c33.5,0,60.7-27.2,60.7-60.7v0
					C333,136.6,331.9,135.5,330.6,135.5z"/>
				<path class="st11" d="M330.6,204.5l-58.2,0c-1.3,0-2.4,1.1-2.4,2.4v58.2c0,1.3,1.1,2.4,2.4,2.4h0c33.5,0,60.7-27.2,60.7-60.7v0
					C333,205.5,331.9,204.5,330.6,204.5z"/>
				<path class="st12" d="M341.1,198.8l58.2,0c1.3,0,2.4-1.1,2.4-2.4l0-58.2c0-1.3-1.1-2.4-2.4-2.4h0c-33.5,0-60.7,27.2-60.7,60.7v0
					C338.6,197.7,339.7,198.8,341.1,198.8z"/>
				<path class="st13" d="M338.6,206.9l0,58.2c0,1.3,1.1,2.4,2.4,2.4l58.2,0c1.3,0,2.4-1.1,2.4-2.4v0c0-33.5-27.2-60.7-60.7-60.7h0
					C339.7,204.5,338.6,205.5,338.6,206.9z"/>
			</g>
			<g id="_x3C_Grid_Repeat_x3E__00000150785483267414472610000016771135705376590488_">
				<path class="st10" d="M71.1,270l58.2,0c1.3,0,2.4,1.1,2.4,2.4l0,58.2c0,1.3-1.1,2.4-2.4,2.4h0c-33.5,0-60.7-27.2-60.7-60.7v0
					C68.7,271.1,69.8,270,71.1,270z"/>
				<path class="st11" d="M71.1,339l58.2,0c1.3,0,2.4,1.1,2.4,2.4l0,58.2c0,1.3-1.1,2.4-2.4,2.4h0c-33.5,0-60.7-27.2-60.7-60.7v0
					C68.7,340.1,69.8,339,71.1,339z"/>
				<path class="st12" d="M60.6,333.3l-58.2,0c-1.3,0-2.4-1.1-2.4-2.4l0-58.2c0-1.3,1.1-2.4,2.4-2.4h0c33.5,0,60.7,27.2,60.7,60.7v0
					C63.1,332.2,62,333.3,60.6,333.3z"/>
				<path class="st13" d="M63.1,341.4l0,58.2c0,1.3-1.1,2.4-2.4,2.4l-58.2,0c-1.3,0-2.4-1.1-2.4-2.4v0C0,366.1,27.1,339,60.6,339h0
					C62,339,63.1,340.1,63.1,341.4z"/>
			</g>
			<g id="_x3C_Grid_Repeat_x3E__00000163764114258619777800000015559236421745092481_">
				<path class="st10" d="M195.6,402.1l-58.2,0c-1.3,0-2.4-1.1-2.4-2.4l0-58.2c0-1.3,1.1-2.4,2.4-2.4h0c33.5,0,60.7,27.2,60.7,60.7
					v0C198,401,196.9,402.1,195.6,402.1z"/>
				<path class="st11" d="M195.6,333.1l-58.2,0c-1.3,0-2.4-1.1-2.4-2.4l0-58.2c0-1.3,1.1-2.4,2.4-2.4h0c33.5,0,60.7,27.2,60.7,60.7
					v0C198,332,196.9,333.1,195.6,333.1z"/>
				<path class="st12" d="M206.1,338.7h58.2c1.3,0,2.4,1.1,2.4,2.4l0,58.2c0,1.3-1.1,2.4-2.4,2.4h0c-33.5,0-60.7-27.2-60.7-60.7v0
					C203.7,339.8,204.8,338.7,206.1,338.7z"/>
				<path class="st13" d="M203.7,330.6l0-58.2c0-1.3,1.1-2.4,2.4-2.4l58.2,0c1.3,0,2.4,1.1,2.4,2.4v0c0,33.5-27.2,60.7-60.7,60.7h0
					C204.8,333.1,203.7,332,203.7,330.6z"/>
			</g>
			<g id="_x3C_Grid_Repeat_x3E__00000061461436500751821530000003168031263798776458_">
				<path class="st10" d="M341.1,270l58.2,0c1.3,0,2.4,1.1,2.4,2.4l0,58.2c0,1.3-1.1,2.4-2.4,2.4h0c-33.5,0-60.7-27.2-60.7-60.7v0
					C338.6,271.1,339.7,270,341.1,270z"/>
				<path class="st11" d="M341.1,339l58.2,0c1.3,0,2.4,1.1,2.4,2.4v58.2c0,1.3-1.1,2.4-2.4,2.4h0c-33.5,0-60.7-27.2-60.7-60.7v0
					C338.6,340.1,339.7,339,341.1,339z"/>
				<path class="st12" d="M330.5,333.3l-58.2,0c-1.3,0-2.4-1.1-2.4-2.4l0-58.2c0-1.3,1.1-2.4,2.4-2.4h0c33.5,0,60.7,27.2,60.7,60.7
					v0C333,332.2,331.9,333.3,330.5,333.3z"/>
				<path class="st13" d="M333,341.4l0,58.2c0,1.3-1.1,2.4-2.4,2.4l-58.2,0c-1.3,0-2.4-1.1-2.4-2.4v0c0-33.5,27.2-60.7,60.7-60.7h0
					C331.9,339,333,340.1,333,341.4z"/>
			</g>
		</g>
	</g>
</g>
<g id="Layer_3" class="st15">
	<g class="st9">
		<path class="st16" d="M140,356c-11.4,12.9-21.3,19.7-34.3,29.7c-9,7-16.5,12.7-17.7,14.3c-3,4-10,20-10,34H0v-22c0,0,0-14,19-14
			s36-3,39-20s7-32-8-24s-27,8-33,2s-17-6.5-17-6.5V0h78.2c-2.8,11.7-7.9,21.9-13.3,31.2c-6.6,11.5-14.1,22.4-23.3,27.6
			c-7.1,4-15.4,4.8-21,12.9c-4.8,6.9-6.5,17.8-6.1,28c0.4,10.2,2.8,19.9,5.1,29.5c3.4,14.1,6.9,28.3,10.3,42.4
			c2.6,10.7,5.3,21.8,4.8,33.2c-0.4,11.4-4.8,23.4-11.9,26c-3.3,1.2-6.7,0.3-10.1,0.6c-3.4,0.4-7.1,2.5-8.4,7.4
			c-1.8,6.9,1.9,14.1,5.5,19c16.2,21.9,36,37.1,56.9,43.6c14.4,4.5,29.1,4.9,43.6,8.7c10.3,2.7,20.8,7.5,29.7,15.9H140
			C140,326,151.4,343.1,140,356z"/>
		<path class="st17" d="M170.4,334.4c-0.2,0.2-0.4,0.5-0.6,0.8c-0.3,0.4-0.7,0.8-1,1.2c0,0,0,0,0,0c-0.4,0.4-0.8,0.9-1.3,1.4
			c-0.2,0.2-0.5,0.5-0.7,0.8c-4.2,4.3-9.4,9.2-12.7,14.4c-7,11-25,35-27,36s-16,17-12,27s4,18,4,18H78c0-14,7-30,10-34
			c1.2-1.6,8.7-7.3,17.7-14.3c0.8-0.6,1.6-1.3,2.5-1.9c8.5-6.6,18-14.1,24.6-20.3c0,0,0.1,0,0.1-0.1c3-2.8,5.5-5.4,7.1-7.4
			c2.9-3.8,4.4-7.5,4.9-11.1c0,0,0,0,0-0.1c1.1-7.1-1.6-13.4-4.5-18.1c0-0.1-0.1-0.2-0.1-0.2c-0.1-0.1-0.1-0.2-0.2-0.3
			c0-0.1-0.1-0.1-0.1-0.2c0-0.1-0.1-0.1-0.1-0.2c0,0,0,0,0,0c-3.8-5.6-14.1-10.7-23.3-13.8c-0.2-0.1-0.4-0.1-0.6-0.2
			c-0.6-0.2-1.1-0.4-1.7-0.6c-0.1,0-0.2,0-0.2-0.1c-0.4-0.1-0.7-0.2-1.1-0.3c-0.3-0.1-0.6-0.2-0.9-0.3c0,0-0.1,0-0.1,0
			c-0.5-0.1-1-0.3-1.4-0.4c-14.5-3.8-29.2-4.2-43.6-8.7c-20.9-6.5-40.7-21.7-56.9-43.6c-3.6-4.8-7.3-12.1-5.5-19
			c1.3-4.9,5-7.1,8.4-7.4c3.4-0.3,6.8,0.6,10.1-0.6c7-2.6,11.4-14.5,11.9-26c0.4-11.4-2.2-22.6-4.8-33.2
			c-3.4-14.1-6.9-28.3-10.3-42.4c-2.3-9.5-4.7-19.3-5.1-29.5c-0.4-10.2,1.3-21.1,6.1-28c5.6-8.1,13.8-8.8,21-12.9
			c9.2-5.2,16.7-16.1,23.3-27.6C70.3,21.9,75.3,11.7,78.2,0h39.1c0.8,0,1.3,0,1.6,0c0.4,2.1,0,6.6-2.1,15.1
			c-6.2,25.2-17.8,33.2-21.6,35.8c-3.8,2.6-14.9,2.7-17.5,3c-2.6,0.3-12.6,8.4-17.9,17c-0.1,0.1-0.2,0.3-0.3,0.4
			C48.6,89,35.5,115,37.2,139.4c1.8,24.4,13.5,45.6,16.8,61s2.2,48.2,6.6,54.7c4.7,6.7,26.1-8.7,34.4,12.4
			c8.3,21.1,30-0.3,46.5,14.5c0.2,0.2,0.4,0.3,0.6,0.5c0.1,0.1,0.3,0.3,0.4,0.4c0.1,0.1,0.3,0.2,0.4,0.4c0.6,0.6,1.2,1.1,1.8,1.7
			c0.6,0.6,1.2,1.2,1.8,1.8c0.5,0.5,1.1,1.1,1.6,1.6c0.2,0.2,0.4,0.4,0.6,0.6c0.5,0.5,0.9,1,1.4,1.5c0,0,0,0,0,0
			c0.5,0.6,1,1.1,1.5,1.7c0.8,0.9,1.6,1.9,2.4,2.9c0.3,0.4,0.7,0.8,1,1.2c0.2,0.2,0.3,0.4,0.5,0.6c0.4,0.5,0.8,1,1.2,1.5
			c1.2,1.6,2.4,3.2,3.5,4.8c0.5,0.6,0.9,1.3,1.3,2c0.6,0.9,1.2,1.9,1.8,2.8c0.4,0.6,0.8,1.3,1.2,1.9c1.5,2.4,2.8,4.9,4.1,7.5
			c0,0,0,0.1,0,0.1c1.3,2.7,2.6,5.5,3.8,8.3h0.3C174.1,328.5,172.8,331.3,170.4,334.4z"/>
		<path class="st18" d="M313.6,226.1c-2.5,30.4-15.6,59-11.8,89c0.5,3.7,1.2,7.3,2.2,10.8c0,0,0,0,0,0c0,0,0,0,0,0h0
			c0.2,0.1,3,1.3,4.6,6.5c0,0,0,0.1,0,0.1c0.8,2.7,1.3,6.4,0.9,11.6c0,0.2,0,0.4,0,0.6c0,0.3,0,0.6-0.1,0.9c0,0.3-0.1,0.6-0.1,0.9
			c0,0.2,0,0.3,0,0.4c0,0.2,0,0.3-0.1,0.5c0,0.1,0,0.2,0,0.3c0,0,0,0,0,0c0,0.1,0,0.2,0,0.3c0,0.2-0.1,0.5-0.1,0.9
			c-3,20-22,41-29,45c-3.2,1.8-8.2,6.3-12.6,11c-5.1,5.5-9.4,11.3-9.4,14c0,0.2,0,0.5,0,0.8c0,0.2,0,0.4-0.1,0.6
			c0,0.4-0.1,0.8-0.2,1.3c0,0.3-0.1,0.6-0.2,0.9c0,0.2-0.1,0.4-0.1,0.6c-0.1,0.6-0.3,1.1-0.4,1.7c-0.1,0.2-0.1,0.4-0.2,0.6
			c-0.1,0.4-0.2,0.8-0.3,1.2c-0.1,0.2-0.1,0.4-0.2,0.6c-0.1,0.4-0.2,0.8-0.3,1.1c-0.2,0.7-0.4,1.3-0.6,1.9c-0.1,0.4-0.3,0.8-0.4,1.1
			c-0.1,0.3-0.2,0.6-0.3,0.8c0,0.1-0.1,0.2-0.1,0.2c-0.1,0.4-0.3,0.7-0.3,0.9c-0.1,0.2-0.1,0.3-0.2,0.4c0,0,0,0.1-0.1,0.1l0,0.1v0
			h-13c0-4,1.1-3.8,2.7-6.4c3.5-5.8,9-13.2,8.3-16.6c-0.2-1-0.2-2-0.1-3.1c0.2-2.5,1.3-5.1,3-7.2c1.1-1.4,2.5-2.7,4.1-3.7
			c5-3,27-34,26-43c0-0.5-0.1-1-0.1-1.4c-0.1-2-0.2-4.3-0.1-6.8c0-0.2,0-0.4,0-0.5c0.2-8.4,1.1-17.9,1.2-19.2c0,0,0-0.1,0-0.1
			c0.3-9.8-8.1-25.4-6.9-39.2c1.5-18,11.5-32.6,12-50.8c0.1-3.9-0.3-7.9-1.6-11.1c-1.1-2.5-2.6-4.4-4.3-6
			c-16.7-16.6-40.5-12.3-54.1-34.8c-4-6.7-6.8-16.9-4.1-25.1c3.1-9.6,11.4-10.9,16.7-17.7c6.5-8.5,7.2-24.7,3.9-37.1
			c-3.3-12.4-9.7-21.8-15.9-31.1c-1.4-2.1-2.8-4.3-3.4-7.2c-0.7-3.8,0.2-7.9,1.2-11.6c2.1-8.4,8.3-8.9,7.5-24.6
			c-0.8-15.6-0.9-13.3,1.9-17.7c2-3.1,1.3-8,2.4-12.1h13c-1.7,7.9-3,16.1-3.8,24.4c-3.3,33.6,2.3,70.4,17.6,94.3
			c9.5,14.8,22.2,24,31.4,39.3C310.3,175.8,315.6,201.6,313.6,226.1z"/>
		<path class="st0" d="M262.7,369c-0.2,0.3-0.5,0.7-0.7,1c-4.8,6-10.8,17.4-16.4,28.9c-0.8,1.7-1.6,3.3-2.4,5
			c-0.2,0.4-0.3,0.7-0.5,1.1c-1.8,3.8-3.5,7.6-5,11c-0.2,0.4-0.4,0.9-0.6,1.3c-1.5,3.5-2.9,6.7-4,9.3c-0.1,0.3-0.2,0.5-0.3,0.8
			c-0.9,2.1-1.6,3.8-2.1,5c-0.1,0.2-0.1,0.3-0.2,0.4c0,0.1-0.1,0.2-0.1,0.2c0,0.1,0,0.1-0.1,0.2l-0.1,0.3l0,0.1c0,0,0,0.1,0,0.1
			c0,0,0,0,0,0c0,0,0,0,0,0l0,0.1c0,0.1-0.1,0.1-0.1,0.1h-28c-4-5.4,0.5-9.9,6.1-14.1c2.7-2,5.6-4,7.9-5.9c4.3-3.7,3.3-10.3,2-16.7
			c-0.9-4.1-2-8.2-2-11.3c0-6,4-6.4,10.7-8.8c2.2-0.8,4.6-1.8,7.3-3.2c11-6,18-38,15-48h-0.2c-0.1-15.8-2.1-31.6-7.3-44.9
			c-5.2-13.5-13.3-23.6-21.9-31.6c-24.5-22.7-53.3-29.7-79.8-45.8c-4-2.5-8.2-5.4-10.6-11.2c-3-7.3-2.1-16.7-1.1-25.2
			c1.4-12.5,3.6-26.6,10.7-32.5c4.6-3.9,10-3.2,15.2-3.5c13.1-1,27.6-13.1,29.1-33.7c0.8-11.3-2.4-22.2-4.9-32.8
			c-2.5-10.7-4.2-23.1-0.5-32.9c3.7-10.1,11.5-13.7,17.7-20.1c3-3.1,5.5-7,7.7-11.5h26.7c-4.3,15.3-8.6,30.7-12.9,46
			c-1.8,6.2-3.5,12.9-2.9,19.7c0.6,6.5,3.4,11.8,5.2,17.6c3.4,10.7,3.8,23.6,1.1,34.8c-5,20.5-19.8,35.7-18.5,57.6
			c1,16.7,11,27.8,19.9,36.9c15.5,15.8,30.9,33.1,41.9,56.4c7.8,16.5-2.6,41.6-1.8,56.8C262.6,340.7,273.5,354.4,262.7,369z"/>
		<path class="st19" d="M234,374c-2.7,1.5-5.1,2.5-7.3,3.2c-6.7,2.4-10.7,2.7-10.7,8.8c0,3.1,1.1,7.2,2,11.3c1.4,6.4,2.3,13-2,16.7
			c-2.3,2-5.2,3.9-7.9,5.9c-5.6,4.2-10.2,8.7-6.1,14.1h-42c0.1-0.2,0.2-0.4,0.4-0.6c0.1-0.1,0.1-0.2,0.2-0.3
			c0.1-0.2,0.2-0.4,0.4-0.6c0.1-0.1,0.2-0.2,0.2-0.4c0.1-0.2,0.2-0.3,0.3-0.5c0.1-0.2,0.2-0.3,0.3-0.5c0,0,0.1-0.1,0.1-0.1
			c0.1-0.2,0.2-0.3,0.3-0.5c0.2-0.2,0.4-0.5,0.5-0.8c0-0.1,0.1-0.1,0.1-0.2c0.1-0.1,0.1-0.1,0.2-0.2c0-0.1,0.1-0.1,0.1-0.2
			c0,0,0,0,0,0c0,0,0,0,0-0.1c0-0.1,0.1-0.1,0.1-0.2c0.1-0.1,0.2-0.2,0.2-0.3c0.1-0.1,0.2-0.2,0.3-0.4c0.8-1.1,1.7-2.3,2.7-3.5
			c0.3-0.4,0.6-0.7,0.9-1.1c0.7-0.8,1.4-1.6,2-2.4c0.3-0.3,0.6-0.7,0.9-1c0,0,0.1-0.1,0.1-0.1c0.2-0.2,0.3-0.4,0.5-0.5
			c0.4-0.4,0.7-0.7,1.1-1.1l0.1-0.1c0.3-0.3,0.7-0.6,1-0.9c0.3-0.3,0.7-0.6,1-0.9c0.4-0.3,0.7-0.6,1.1-0.8c0.5-0.4,1.1-0.8,1.6-1.1
			c0.7-0.4,1.4-0.8,2.1-1.1c0,0,0.1,0,0.1,0c0.2-0.1,0.4-0.2,0.7-0.2c0.1,0,0.1,0,0.2,0c0.2,0,0.3-0.1,0.5-0.1
			c0.8-0.2,1.6-0.2,2.3,0c9,2,21-15,19-22s-10-6-8-11s25-12,28-17s17-16,15-21c0-0.1-0.1-0.2-0.2-0.3c0,0,0,0,0,0
			c-2.2-4.2-12.7-4-16.3-13v0c-0.1-1.1-0.2-2.1-0.5-2.7h-0.3c-0.7-3.5-3.9-10.2-8.6-18.5c0,0,0-0.1-0.1-0.1
			c-13-25.4-28.9-46.9-46.9-62.8c-0.2-0.2-0.5-0.5-0.8-0.7c-0.4-0.3-0.7-0.6-1.1-1c-11.1-9.5-22.9-17-33.4-28s-19.9-26.6-22.9-46
			c-4.4-27.7,7.3-59.7,24.8-66.1c4.8-1.8,9.8-1.8,14.5-3.9c10.7-4.8,19.2-23.4,15.7-40.2c-1.1-5.3-3.2-10-4.3-15.3
			c-0.7-3.4-1-7-1-10.5c0-0.5,0-1,0-1.5c0-0.2,0-0.4,0-0.6c0-0.1,0-0.3,0-0.4c0-0.5,0-1,0.1-1.4c0-0.4,0-0.8,0.1-1.3
			c0-0.2,0-0.5,0-0.8c0.1-1.4,0.2-2.7,0.4-4.1c0.1-0.7,0.2-1.5,0.3-2.2c0.1-0.7,0.2-1.3,0.3-2c0.1-0.9,0.3-1.8,0.4-2.8
			c0.3-1.8,0.5-3.6,0.8-5.4c0.3-1.8,0.6-3.6,0.8-5.4c0.1-0.8,0.2-1.5,0.3-2.3c0.1-0.8,0.2-1.7,0.3-2.5c0-0.1,0-0.2,0-0.3h43.4
			c-2.1,4.5-4.7,8.4-7.7,11.5c-6.1,6.4-14,10-17.7,20.1c-3.6,9.8-1.9,22.3,0.5,32.9c2.5,10.7,5.7,21.6,4.9,32.8
			c-1.5,20.6-16.1,32.8-29.1,33.7c-5.2,0.4-10.6-0.3-15.2,3.5c-7,5.9-9.2,20.1-10.7,32.5c-1,8.5-1.9,18,1.1,25.2
			c2.4,5.8,6.6,8.7,10.6,11.2c26.5,16,55.3,23.1,79.8,45.8c8.6,8,16.7,18.1,21.9,31.6c5.2,13.3,7.3,29.2,7.3,44.9h0.2
			C252,336,245,368,234,374z"/>
		<path class="st17" d="M222,363c-3,5-26,12-28,17s6,4,8,11s-10,24-19,22c-0.8-0.2-1.5-0.2-2.3,0c-0.2,0-0.3,0.1-0.5,0.1
			c-0.1,0-0.1,0-0.2,0c-0.2,0.1-0.4,0.1-0.7,0.2c0,0,0,0-0.1,0h0c-0.2,0.1-0.4,0.2-0.6,0.3c-0.5,0.2-0.9,0.5-1.4,0.8
			c-0.1,0-0.2,0.1-0.3,0.2c-0.1,0.1-0.2,0.1-0.3,0.2c-0.2,0.1-0.4,0.3-0.7,0.4c-0.2,0.2-0.5,0.3-0.8,0.5c-0.2,0.2-0.5,0.3-0.7,0.5
			c-1.9,1.5-3.8,3.4-5.5,5.4c-0.2,0.2-0.4,0.4-0.5,0.6c-0.2,0.2-0.3,0.4-0.5,0.6c-0.4,0.4-0.7,0.9-1.1,1.3c-0.4,0.4-0.7,0.9-1,1.3
			c-0.6,0.8-1.1,1.5-1.6,2.2c-0.2,0.2-0.3,0.5-0.5,0.7c-0.1,0.1-0.2,0.2-0.2,0.3c-0.1,0.1-0.2,0.2-0.2,0.3c0,0.1-0.1,0.1-0.1,0.2
			c0,0.1-0.1,0.2-0.2,0.2c0,0.1-0.1,0.1-0.1,0.2c-0.2,0.3-0.4,0.5-0.5,0.8c-0.1,0.2-0.2,0.3-0.3,0.5c0,0-0.1,0.1-0.1,0.1
			c-0.1,0.2-0.2,0.4-0.3,0.5c-0.1,0.2-0.2,0.3-0.3,0.5c-0.1,0.1-0.2,0.2-0.2,0.4c-0.1,0.2-0.2,0.4-0.4,0.6c-0.1,0.1-0.1,0.2-0.2,0.3
			c-0.2,0.3-0.3,0.5-0.4,0.6h0.1v0l-27.1,0c-3-11-1-19,3-24c2.2-2.8,10.1-5,18-6.7c6.2-1.4,12.4-2.4,16-3.3c8-2,10-10,3-15
			c-2.2-1.5-3-3.3-2.9-5.2c0.1-2.6,2-5.1,4.7-6.8c1.6-1,3.4-1.8,5.2-2c3.8-0.5,12.3-3.7,19.5-8.1c0,0,0.1,0,0.1-0.1h0
			c5.5-3,10.5-15.9,11.3-20.3v0c0.4-2.5-1-7.7-2.3-11.5c-0.8-3-1.5-4.9-1.5-4.9h-0.3c-13.4-32.6-32.7-58.6-54.5-76.3
			c-0.8-0.7-1.6-1.3-2.4-1.9c-25-19.5-50.6-28.7-72.7-55.9c-4.6-5.6-17.1-23.4-14.5-51.2c1.3-14.4,3.3-33.1,10.7-41.6
			c0.1-0.1,0.2-0.2,0.3-0.3c0.1-0.1,0.2-0.2,0.3-0.3c0.2-0.2,0.3-0.3,0.5-0.5c5.9-5.5,13.1-5.5,19.8-7.6
			c13.3-4.2,25.2-17.9,32.1-36.4c5.9-16.2,7.8-34.9,6.9-53.7h26.3c0,0.1,0,0.2,0,0.3c-0.1,0.8-0.2,1.7-0.3,2.5
			c-0.1,0.8-0.2,1.5-0.3,2.3c-0.3,1.8-0.5,3.6-0.8,5.4c-0.3,1.8-0.6,3.6-0.8,5.4c-0.1,0.9-0.3,1.8-0.4,2.8c-0.1,0.7-0.2,1.3-0.3,2
			c-0.1,0.7-0.2,1.5-0.3,2.2c-0.2,1.4-0.3,2.7-0.4,4.1c0,0.2,0,0.5,0,0.8c0,0.4-0.1,0.9-0.1,1.3c0,0.5,0,1-0.1,1.4
			c0,0.1,0,0.3,0,0.4c0,0.2,0,0.4,0,0.6c0,0.5,0,1,0,1.5c0,3.6,0.3,7.1,1,10.5c1.1,5.3,3.2,10,4.3,15.3c3.5,16.8-5,35.5-15.7,40.2
			c-4.7,2.1-9.7,2.1-14.5,3.9c-17.5,6.4-29.1,38.4-24.8,66.1c3.1,19.4,12.4,34.9,22.9,46s22.3,18.5,33.4,28c0.4,0.3,0.7,0.6,1.1,1
			c0.2,0.2,0.5,0.5,0.8,0.7c16.1,14.6,35.8,43.1,46.9,62.8c0,0,0,0.1,0.1,0.1c4.7,8.3,7.9,15,8.6,18.5c0.2,1,0.5,1.9,0.8,2.7v0
			c3.6,8.9,14.1,8.7,16.3,13c0,0,0,0,0,0c0.1,0.1,0.1,0.2,0.2,0.3C239,347,225,358,222,363z"/>
		<path class="st3" d="M73.6,98.6c-0.1,0.1-0.2,0.2-0.3,0.3c0,0,0.1-0.1,0.1-0.2C73.5,98.8,73.5,98.7,73.6,98.6z"/>
		<path class="st20" d="M375,93.9v134.8c-4,7.8-8.5,15-12.1,23.3c-4.8,11.2-7.9,24.2-9.7,37.5c-1.7,11.9-2.4,24.5-1.4,36.5
			c0,0-0.7,9-3.7,12s-2,4,2,9s-2,28-4,35c-1.6,5.6-13.5,12.5-19.7,16.1c-1.5,0.9-2.7,1.5-3.3,1.9c-2.9,2-7.8,32.8-8,34
			c0,0-24,0-24,0h-37v0l0-0.1c0,0,0-0.1,0.1-0.1c0-0.1,0.1-0.2,0.2-0.4c0.1-0.2,0.2-0.6,0.3-0.9c0-0.1,0.1-0.2,0.1-0.2
			c0.1-0.3,0.2-0.5,0.3-0.8c0.1-0.3,0.3-0.7,0.4-1.1c0.2-0.6,0.4-1.2,0.6-1.9c0.1-0.4,0.2-0.7,0.3-1.1c0-0.2,0.1-0.4,0.2-0.6
			c0.1-0.4,0.2-0.8,0.3-1.2c0-0.2,0.1-0.4,0.2-0.6c0.2-0.6,0.3-1.2,0.4-1.7c0-0.2,0.1-0.4,0.1-0.6c0.1-0.3,0.1-0.6,0.2-0.9
			c0.1-0.5,0.2-0.9,0.2-1.3c0-0.2,0.1-0.4,0.1-0.6c0-0.3,0-0.5,0-0.8c0-2.7,4.3-8.5,9.4-14c4.4-4.7,9.3-9.1,12.6-11c7-4,26-25,29-45
			c0.1-0.4,0.1-0.7,0.1-0.9c0-0.1,0-0.2,0-0.3c0,0,0,0,0,0c0-0.1,0-0.2,0-0.3c0-0.2,0-0.3,0.1-0.5c0-0.1,0-0.3,0-0.4
			c0-0.3,0.1-0.6,0.1-0.9c0-0.3,0.1-0.6,0.1-0.9c0-0.2,0-0.4,0-0.6c0.5-5.6,0-9.2-0.9-11.6c0,0,0-0.1,0-0.1
			c-1.6-5.2-4.4-6.4-4.6-6.5c0,0,0,0,0,0c0,0,0,0,0,0c-1-3.4-1.7-7-2.2-10.8c-3.8-30,9.3-58.7,11.8-89c2-24.5-3.3-50.3-14.1-68.1
			c-9.3-15.3-21.9-24.4-31.4-39.3c-15.3-23.8-20.9-60.6-17.6-94.3c0.8-8.3,2.1-16.5,3.8-24.4H315c-1.7,31.7-14.2,73.2,2.6,90.8
			c9.3,9.7,41.7,6.9,51.1,16.5c2.1,2.2,4.2,4.6,6.1,7.3v-21C374.8,93.7,374.9,93.8,375,93.9z"/>
		<path class="st17" d="M375,228.7V434c0,0-60,0-60,0c0.2-1.2,5.1-32,8-34c0.6-0.4,1.8-1.1,3.3-1.9c6.2-3.5,18.1-10.5,19.7-16.1
			c2-7,8-30,4-35s-5-6-2-9s3.7-12,3.7-12c-1-12.1-0.3-24.6,1.4-36.5c1.9-13.3,4.9-26.2,9.7-37.5C366.5,243.7,371,236.5,375,228.7z"
			/>
		<path class="st17" d="M374.7,0v114.6c-1.9-2.7-3.9-5.1-6.1-7.3c-9.3-9.6-41.8-6.8-51.1-16.5C300.7,73.2,313.3,31.7,315,0H374.7z"
			/>
		<path class="st7" d="M73.6,98.6c-0.1,0.1-0.2,0.2-0.3,0.3c0,0,0.1-0.1,0.1-0.2C73.5,98.8,73.5,98.7,73.6,98.6z"/>
		<path class="st21" d="M58,378c-3,17-20,20-39,20S0,412,0,412v-62.5c0,0,11,0.5,17,6.5s18,6,33-2S61,361,58,378z"/>
		<path class="st22" d="M279.1,286.8c-1.2,13.8,7.2,29.4,6.9,39.2c0,0,0,0.1,0,0.1c-0.1,1.2-1.1,10.8-1.2,19.2c0,0.2,0,0.4,0,0.5
			c-0.1,2.3,0,4.5,0.1,6.8c0,0.5,0.1,1,0.1,1.4c1,9-21,40-26,43c-1.6,1-3,2.2-4.1,3.7c-1.7,2.2-2.8,4.7-3,7.2
			c-0.1,1.1-0.1,2.1,0.1,3.1c0.7,3.5-4.9,10.8-8.3,16.6c-1.5,2.6-2.7,2.4-2.7,6.4h-11c0,0,0,0,0.1-0.1l0-0.1c0,0,0,0,0,0
			c0,0,0,0,0,0c0,0,0,0,0-0.1l0-0.1l0.1-0.3c0-0.1,0-0.1,0.1-0.2c0-0.1,0.1-0.1,0.1-0.2c0-0.1,0.1-0.3,0.2-0.4
			c0.5-1.2,1.2-2.9,2.1-5c0.1-0.2,0.2-0.5,0.3-0.8c1.1-2.6,2.5-5.8,4-9.3c0.2-0.4,0.4-0.9,0.6-1.3c1.5-3.5,3.2-7.2,5-11
			c0.2-0.4,0.3-0.7,0.5-1.1c0.8-1.7,1.6-3.3,2.4-5c5.6-11.5,11.6-22.9,16.4-28.9c0.3-0.3,0.5-0.6,0.7-1c10.8-14.6-0.1-28.4-1-43.2
			c-0.9-15.2,9.6-40.3,1.8-56.8c-11.1-23.4-26.4-40.7-41.9-56.4c-8.9-9.1-19-20.2-19.9-36.9c-1.2-21.9,13.5-37.1,18.5-57.6
			c2.7-11.2,2.3-24.1-1.1-34.8c-1.9-5.8-4.6-11.2-5.2-17.6c-0.7-6.8,1.1-13.5,2.9-19.7c4.3-15.3,8.6-30.7,12.9-46h11.7
			c-1.1,4-0.5,8.9-2.4,12.1c-2.8,4.4-2.7,2.1-1.9,17.7c0.8,15.6-5.4,16.2-7.5,24.6c-1,3.7-1.9,7.8-1.2,11.6c0.6,2.9,2,5.1,3.4,7.2
			c6.2,9.2,12.6,18.7,15.9,31.1c3.3,12.4,2.7,28.6-3.9,37.1c-5.3,6.8-13.6,8.1-16.7,17.7c-2.7,8.2,0.1,18.5,4.1,25.1
			c13.7,22.5,37.4,18.2,54.1,34.8c1.6,1.6,3.2,3.5,4.3,6c1.4,3.2,1.7,7.3,1.6,11.1C290.6,254.3,280.7,268.8,279.1,286.8z"/>
		<path class="st23" d="M210.8,342.5L210.8,342.5c-0.8,4.4-5.8,17.3-11.3,20.3h0l-0.3,0.2c0.1,0,0.2-0.1,0.2-0.1
			c-7.2,4.4-15.7,7.6-19.5,8.1c-1.8,0.3-3.7,1-5.2,2c-2.6,1.7-4.5,4.2-4.7,6.8c-0.1,1.8,0.7,3.6,2.9,5.2c7,5,5,13-3,15
			c-3.5,0.9-9.8,2-16,3.3c-7.9,1.7-15.8,3.9-18,6.7c-4,5-6,13-3,24h-14c0,0,0-8-4-18s10-26,12-27s20-25,27-36
			c3.4-5.3,8.5-10.1,12.7-14.4c0.2-0.3,0.5-0.5,0.7-0.8c0.5-0.5,0.9-1,1.3-1.4c0,0,0,0,0,0c0.4-0.4,0.7-0.8,1-1.2
			c0.2-0.2,0.4-0.5,0.6-0.8c2.4-3.1,3.7-5.9,2.6-8.4h-0.3c-0.1-1.4-1.6-4.5-3.8-8.3c0,0,0-0.1,0-0.1c-1.3-2.6-2.7-5.1-4.1-7.5
			c-0.4-0.6-0.8-1.3-1.2-1.9c-0.6-1-1.2-1.9-1.8-2.8c-0.4-0.7-0.9-1.3-1.3-2c-1.1-1.7-2.3-3.3-3.5-4.8c-0.4-0.5-0.8-1-1.2-1.5
			c-0.2-0.2-0.3-0.4-0.5-0.6c-0.3-0.4-0.7-0.8-1-1.2c-0.8-1-1.6-1.9-2.4-2.9c-0.5-0.6-1-1.2-1.5-1.7c0,0,0,0,0,0
			c-0.5-0.5-0.9-1-1.4-1.5c-0.2-0.2-0.4-0.4-0.6-0.6c-0.3-0.3-0.5-0.5-0.8-0.8c-0.3-0.3-0.5-0.5-0.8-0.8c-0.6-0.6-1.2-1.2-1.8-1.8
			c-0.6-0.6-1.2-1.2-1.8-1.7c-0.1-0.2-0.3-0.3-0.4-0.4c-0.1-0.1-0.3-0.3-0.4-0.4c-0.2-0.2-0.4-0.4-0.6-0.5
			c-16.5-14.8-38.2,6.6-46.5-14.5c-8.3-21.1-29.7-5.7-34.4-12.4c-4.5-6.5-3.3-39.2-6.6-54.7s-15.1-36.6-16.8-61
			C35.5,115,48.6,89,59.4,71.3c0.1-0.1,0.2-0.3,0.3-0.4c5.4-8.6,15.4-16.7,17.9-17c2.6-0.3,13.8-0.4,17.5-3
			c3.8-2.6,15.4-10.5,21.6-35.8c2.1-8.5,2.5-12.9,2.1-15.1c-0.3,0-0.8,0-1.6,0h16c0.9,18.8-1,37.6-6.9,53.7
			c-6.8,18.6-18.8,32.2-32.1,36.4c-6.7,2.1-13.9,2.1-19.8,7.6c-0.2,0.2-0.3,0.3-0.5,0.5c-0.1,0.1-0.2,0.2-0.3,0.3
			c-0.1,0.1-0.1,0.1-0.2,0.2c-0.1,0-0.1,0.1-0.1,0.2c-7.4,8.5-9.3,27.2-10.7,41.6c-2.6,27.9,9.9,45.6,14.5,51.2
			c22.1,27.2,47.7,36.5,72.7,55.9c0.8,0.6,1.6,1.3,2.4,1.9c21.8,17.7,41.2,43.7,54.5,76.3c0,0,0.9,2.1,1.8,4.9c0,0.1,0,0.1,0.1,0.2
			C209.4,334.2,210.4,338.3,210.8,342.5z"/>
	</g>
</g>
</svg>
