<?xml version="1.0" encoding="utf-8"?>
<!-- Generator: Adobe Illustrator 27.0.1, SVG Export Plug-In . SVG Version: 6.00 Build 0)  -->
<svg version="1.1" id="Layer_2_00000047757442203661600970000004339632787420509119_"
	 xmlns="http://www.w3.org/2000/svg" xmlns:xlink="http://www.w3.org/1999/xlink" x="0px" y="0px" viewBox="0 0 375 434"
	 style="enable-background:new 0 0 375 434;" xml:space="preserve">
<style type="text/css">
	.st0{fill:#7D1089;stroke:#7D1089;stroke-miterlimit:10;}
	.st1{fill:#52F200;}
	.st2{fill:#520A56;stroke:#520A56;stroke-miterlimit:10;}
	.st3{fill:#520A56;}
	.st4{fill:#8A139B;stroke:#8A139B;stroke-miterlimit:10;}
	.st5{fill:#B431B6;stroke:#B431B6;stroke-miterlimit:10;}
	.st6{fill:#7D1089;}
	.st7{fill:#AB35AB;stroke:#AB35AB;stroke-miterlimit:10;}
	.st8{fill:#AB35AB;}
	.st9{fill:#3F094C;}
	.st10{fill:#3F094C;stroke:#3F094C;stroke-miterlimit:10;}
</style>
<path class="st0" d="M140,356c-11.4,12.9-21.3,19.7-34.3,29.7c-9,7-16.5,12.7-17.7,14.3c-3,4-10,20-10,34H0v-22c0,0,0-14,19-14
	s36-3,39-20s7-32-8-24s-27,8-33,2s-17-6.5-17-6.5V0h78.2c-2.8,11.7-7.9,21.9-13.3,31.2c-6.6,11.5-14.1,22.4-23.3,27.6
	c-7.1,4-15.4,4.8-21,12.9c-4.8,6.9-6.5,17.8-6.1,28c0.4,10.2,2.8,19.9,5.1,29.5c3.4,14.1,6.9,28.3,10.3,42.4
	c2.6,10.7,5.3,21.8,4.8,33.2c-0.4,11.4-4.8,23.4-11.9,26c-3.3,1.2-6.7,0.3-10.1,0.6c-3.4,0.4-7.1,2.5-8.4,7.4
	c-1.8,6.9,1.9,14.1,5.5,19c16.2,21.9,36,37.1,56.9,43.6c14.4,4.5,29.1,4.9,43.6,8.7c10.3,2.7,20.8,7.5,29.7,15.9H140
	C140,326,151.4,343.1,140,356z"/>
<path class="st1" d="M58,378c-3,17-20,20-39,20S0,412,0,412v-62.5c0,0,11,0.5,17,6.5s18,6,33-2S61,361,58,378z"/>
<path class="st2" d="M166.7,338.6c-4.2,4.4-9.4,9.2-12.7,14.4c-7,11-25,35-27,36s-16,17-12,27s4,18,4,18H78c0-14,7-30,10-34
	c1.2-1.6,8.7-7.3,17.7-14.3c12.9-10,29-22.6,34.3-29.7c9-12,4.5-23,0-30s-19.3-13.2-29.6-15.9c-14.4-3.8-29.2-4.2-43.6-8.7
	c-20.9-6.5-40.7-21.7-56.9-43.6c-3.6-4.8-7.3-12.1-5.5-18.9c1.3-4.9,5-7.1,8.4-7.4c3.4-0.3,6.8,0.6,10.1-0.6
	c7-2.6,11.4-14.5,11.9-26c0.4-11.4-2.2-22.6-4.8-33.2c-3.4-14.1-6.9-28.3-10.3-42.4c-2.3-9.5-4.7-19.2-5.1-29.5
	c-0.4-10.2,1.3-21.2,6.1-28c5.6-8.1,13.9-8.8,21-12.9c9.2-5.2,16.7-16.2,23.3-27.6C70.3,21.9,75.3,11.7,78.2,0h39.1
	c0.8,0,1.3,0,1.6,0c0.4,2.1,0,6.6-2.1,15.1c-6.2,25.3-17.8,33.2-21.6,35.8c-3.8,2.6-14.9,2.7-17.6,3c-2.6,0.3-12.6,8.4-17.9,17
	c-0.1,0.1-0.2,0.3-0.3,0.4C48.6,89,35.5,115,37.2,139.4c1.8,24.4,13.5,45.6,16.8,61.1s2.2,48.2,6.6,54.7c4.6,6.7,26.1-8.7,34.4,12.4
	c8.3,21.1,30.1-0.3,46.5,14.5c12.1,10.9,23.5,25.6,31,43.9h0.3C174.6,329.6,171.2,333.8,166.7,338.6L166.7,338.6z"/>
<path class="st1" d="M177.1,414.5c-0.5,0.3-1.1,0.7-1.6,1.1c-0.4,0.3-0.7,0.5-1.1,0.9c-0.3,0.3-0.7,0.6-1,0.9
	c-0.3,0.3-0.7,0.6-1,0.9l-0.1,0.1c-0.4,0.4-0.7,0.7-1.1,1.1c-0.2,0.2-0.4,0.4-0.5,0.5c0,0-0.1,0.1-0.1,0.1c-0.3,0.3-0.6,0.7-0.9,1
	c-0.7,0.8-1.4,1.6-2,2.4c-0.3,0.4-0.6,0.7-0.9,1.1c-1,1.2-1.9,2.4-2.7,3.5c-0.2,0.2-0.3,0.5-0.5,0.7c0.2-0.3,0.5-0.7,0.7-1
	c0.5-0.7,1.1-1.4,1.6-2.2c0.3-0.4,0.7-0.9,1-1.3c0.4-0.4,0.7-0.9,1.1-1.3c0.2-0.2,0.3-0.4,0.5-0.6c0.2-0.2,0.4-0.4,0.5-0.6
	c1.7-2,3.6-3.9,5.5-5.4c0.2-0.2,0.4-0.4,0.7-0.5c0.2-0.2,0.5-0.4,0.8-0.5c0.2-0.1,0.4-0.3,0.7-0.4c0.1-0.1,0.2-0.1,0.3-0.2
	C177,414.5,177,414.5,177.1,414.5L177.1,414.5z"/>
<path class="st1" d="M179.2,413.4c-0.7,0.3-1.4,0.6-2.1,1.1c0,0,0.1,0,0.1,0c0.5-0.3,0.9-0.5,1.4-0.8
	C178.8,413.6,179,413.5,179.2,413.4L179.2,413.4z"/>
<path class="st1" d="M243.7,427.6L241,434C241,432.5,242.1,430.2,243.7,427.6z"/>
<path class="st2" d="M313.6,226.1c-2.5,30.4-15.6,59-11.8,89c0.5,3.7,1.2,7.4,2.2,10.9h0c0.3,0.1,7.3,3.2,5.3,20.5
	c-0.1,0.8-0.2,1.6-0.3,2.5c-3,20-22,41-29,45c-3.2,1.9-8.2,6.3-12.6,11c-5.1,5.5-9.4,11.3-9.4,14c0,0.2,0,0.5,0,0.8
	c0,0.2,0,0.4-0.1,0.6c0,0.4-0.1,0.8-0.2,1.3c0,0.3-0.1,0.6-0.2,0.9c0,0.2-0.1,0.4-0.1,0.6c-0.1,0.6-0.3,1.1-0.4,1.7
	c0,0.2-0.1,0.4-0.2,0.6c-0.1,0.4-0.2,0.8-0.3,1.2c-0.1,0.2-0.1,0.4-0.2,0.6c-0.1,0.4-0.2,0.8-0.4,1.1c-0.2,0.7-0.4,1.3-0.6,1.9
	c-0.1,0.4-0.3,0.8-0.4,1.1c-0.1,0.3-0.2,0.6-0.3,0.9c0,0.1-0.1,0.2-0.1,0.2c-0.1,0.4-0.3,0.7-0.4,0.9c-0.1,0.2-0.1,0.3-0.2,0.4
	c0,0,0,0.1-0.1,0.1l0,0.1v0h-13c0-4,1.1-3.8,2.7-6.4c3.5-5.8,9-13.1,8.3-16.6c-0.2-1-0.2-2-0.1-3.1c0.2-2.5,1.3-5.1,3-7.2
	c1.1-1.4,2.5-2.7,4.1-3.7c5-3,27-34,26-43s1-28,1-28h-0.1c-4.2-12.7-8-25.4-6.8-39.1c1.5-18,11.5-32.6,12-50.8
	c0.1-3.9-0.3-7.9-1.6-11.1c-1.1-2.5-2.6-4.4-4.3-6c-16.7-16.6-40.5-12.3-54.1-34.8c-4-6.7-6.8-16.9-4.1-25.1
	c3.1-9.6,11.4-10.9,16.7-17.7c6.6-8.5,7.2-24.7,3.9-37.1c-3.3-12.4-9.7-21.8-15.9-31.1c-1.4-2.1-2.8-4.3-3.4-7.2
	c-0.7-3.8,0.2-7.9,1.2-11.6c2.1-8.4,8.4-8.9,7.5-24.6c-0.8-15.6-0.9-13.3,1.9-17.7c2-3.1,1.3-8.1,2.4-12.1h13
	c-1.7,7.9-3,16.1-3.8,24.4c-3.3,33.6,2.3,70.4,17.6,94.3c9.5,14.8,22.2,24,31.5,39.3C310.3,175.8,315.6,201.6,313.6,226.1
	L313.6,226.1z"/>
<path class="st3" d="M238.9,12.1c-2.8,4.4-2.7,2.1-1.9,17.7c0.8,15.6-5.4,16.2-7.5,24.6c2.1-8.4,4.3-16.8,6.4-25.1
	c-3.9-2.9-1.3-12.2,1.2-17.8c1.6-3.6,3-7.4,4.2-11.4C240.1,4,240.8,8.9,238.9,12.1L238.9,12.1z"/>
<path class="st4" d="M278,326c0,0-4,29-16,44c-4.8,6-10.9,17.4-16.4,28.9c-0.8,1.7-1.6,3.3-2.4,5c-0.2,0.4-0.3,0.7-0.5,1.1
	c-1.8,3.8-3.5,7.6-5,11c-0.2,0.4-0.4,0.9-0.6,1.3c-1.6,3.5-2.9,6.7-4,9.3c-0.1,0.3-0.2,0.5-0.3,0.8c-0.9,2.1-1.6,3.9-2.1,5
	c-0.1,0.2-0.1,0.3-0.2,0.4c0,0.1-0.1,0.1-0.1,0.2c0,0.1-0.1,0.1-0.1,0.2l-0.1,0.3l-0.1,0.1c0,0,0,0.1-0.1,0.1l0,0.1
	c0,0.1-0.1,0.1-0.1,0.1h-28c-4.1-5.4,0.6-9.9,6.1-14.1c2.7-2,5.6-4,7.9-5.9c4.3-3.6,3.3-10.3,2-16.7c-0.9-4.1-2-8.2-2-11.3
	c0-6,4-6.4,10.7-8.8c2.2-0.8,4.6-1.8,7.3-3.2c11-6,18-38,15-48h-0.2c-0.1-15.8-2.1-31.6-7.3-44.9c-5.2-13.5-13.3-23.6-21.9-31.6
	c-24.5-22.7-53.3-29.7-79.8-45.8c-4-2.4-8.2-5.4-10.6-11.2c-2.9-7.3-2.1-16.7-1.1-25.2c1.4-12.5,3.6-26.6,10.7-32.5
	c4.6-3.9,10-3.2,15.2-3.6c13.1-1,27.6-13.1,29.1-33.7c0.8-11.3-2.4-22.2-4.9-32.8c-2.5-10.7-4.2-23.1-0.6-32.9
	c3.7-10.1,11.6-13.7,17.7-20.1c3-3.1,5.6-7.1,7.7-11.6h26.6c-4.3,15.3-8.6,30.7-12.9,46c-1.8,6.2-3.5,12.9-2.9,19.7
	c0.6,6.4,3.4,11.8,5.2,17.6c3.4,10.7,3.8,23.6,1.1,34.8c-5,20.5-19.8,35.7-18.5,57.6c1,16.7,11,27.8,19.9,36.9
	c15.5,15.8,30.9,33.1,41.9,56.4c7.8,16.5,13.3,36.6,14.3,57L278,326L278,326z"/>
<path class="st5" d="M234,374c-2.7,1.5-5.1,2.5-7.3,3.2C220,379.6,216,380,216,386c0,3.1,1.1,7.2,2,11.3c1.4,6.4,2.3,13-2,16.7
	c-2.3,2-5.2,3.9-7.9,5.9c-5.6,4.2-10.2,8.7-6.1,14.1h-42c0.1-0.2,0.3-0.5,0.6-0.9c0.1-0.2,0.2-0.4,0.4-0.6c0.1-0.1,0.2-0.2,0.2-0.4
	c0.1-0.1,0.2-0.3,0.3-0.5l0,0c0.1-0.2,0.2-0.3,0.3-0.5c0,0,0.1-0.1,0.1-0.1c0.1-0.2,0.2-0.3,0.4-0.5c0.2-0.2,0.4-0.5,0.5-0.8
	c0-0.1,0.1-0.1,0.1-0.2c0.1-0.1,0.1-0.1,0.2-0.2c0.1-0.1,0.1-0.1,0.1-0.2c0,0,0,0,0,0c0,0,0,0,0.1-0.1c0.1-0.1,0.1-0.1,0.1-0.2
	c0.1-0.1,0.2-0.2,0.2-0.4c0.1-0.1,0.2-0.2,0.3-0.4c0.8-1.1,1.7-2.3,2.7-3.5c0.3-0.4,0.6-0.7,0.9-1.1c0.7-0.8,1.4-1.6,2-2.4
	c0.3-0.3,0.6-0.7,0.9-1c0.1,0,0.1-0.1,0.1-0.1c0.2-0.2,0.4-0.4,0.5-0.5c0.4-0.4,0.7-0.7,1.1-1.1l0.1-0.1c0.3-0.3,0.7-0.6,1-0.9
	c0.3-0.3,0.7-0.6,1-0.9c0.4-0.3,0.7-0.6,1.1-0.9c0.6-0.4,1.1-0.8,1.6-1.1c0.7-0.4,1.4-0.8,2.1-1.1c0,0,0.1,0,0.1,0
	c0.2-0.1,0.4-0.1,0.7-0.2c0.1,0,0.1,0,0.2,0c0.2,0,0.4-0.1,0.5-0.1c0.8-0.2,1.6-0.2,2.3,0c9,2,21-15,19-22s-10-6-8-11s25-12,28-17
	s17-16,15-21c-1.3-3.2-10.2-2.2-14.7-5.7c-2.5-2-1.2-8.1-2.3-10.3h-0.3c-14.6-34.5-34.4-63.3-57.4-83c-11.1-9.5-22.9-17-33.4-28
	s-19.9-26.6-22.9-46c-4.4-27.7,7.3-59.7,24.8-66.1c4.8-1.8,9.8-1.8,14.5-3.9c10.7-4.8,19.2-23.5,15.7-40.2c-1.1-5.3-3.2-10-4.3-15.3
	c-2.9-13.8,1.2-29.1,2.9-43.5h43.4c-2.1,4.5-4.7,8.4-7.7,11.6c-6.1,6.4-14,10.1-17.7,20.1c-3.6,9.8-1.9,22.3,0.6,32.9
	c2.5,10.7,5.7,21.6,4.9,32.8c-1.5,20.6-16.1,32.8-29.1,33.7c-5.2,0.4-10.6-0.3-15.2,3.6c-7.1,5.9-9.2,20.1-10.7,32.5
	c-1,8.5-1.9,18,1.1,25.2c2.4,5.8,6.6,8.7,10.6,11.2c26.5,16.1,55.3,23.1,79.8,45.8c8.6,8,16.7,18.1,21.9,31.6
	c5.2,13.3,7.3,29.2,7.3,44.9h0.2C252,336,245,368,234,374L234,374z"/>
<path class="st2" d="M222,363c-3,5-26,12-28,17s6,4,8,11s-10,24-19,22c-0.8-0.2-1.5-0.2-2.3,0c-0.2,0-0.3,0.1-0.5,0.1
	c-0.1,0-0.1,0-0.2,0c-0.2,0.1-0.4,0.1-0.7,0.2c0,0-0.1,0-0.1,0h0c-0.2,0.1-0.4,0.2-0.6,0.3c-0.5,0.2-0.9,0.5-1.4,0.8
	c-0.1,0-0.2,0.1-0.3,0.2c-0.1,0.1-0.2,0.1-0.3,0.2c-0.2,0.1-0.4,0.3-0.7,0.4c-0.2,0.2-0.5,0.4-0.8,0.5c-0.2,0.2-0.4,0.4-0.7,0.5
	c-1.9,1.5-3.8,3.4-5.5,5.4c-0.2,0.2-0.4,0.4-0.5,0.6c-0.2,0.2-0.4,0.4-0.5,0.6c-0.4,0.4-0.7,0.9-1.1,1.3c-0.4,0.5-0.7,0.9-1,1.3
	c-0.6,0.8-1.1,1.5-1.6,2.2c-0.2,0.2-0.3,0.5-0.5,0.7c-0.1,0.1-0.2,0.2-0.2,0.4c-0.1,0.1-0.2,0.2-0.2,0.3c0,0.1-0.1,0.1-0.1,0.2
	c-0.1,0.1-0.1,0.2-0.2,0.2c0,0.1-0.1,0.1-0.1,0.2c-0.2,0.3-0.4,0.5-0.5,0.8c-0.1,0.2-0.2,0.4-0.4,0.5c0,0-0.1,0.1-0.1,0.1
	c-0.1,0.2-0.2,0.4-0.3,0.5l0,0c-0.1,0.2-0.2,0.3-0.3,0.5c-0.1,0.1-0.2,0.2-0.2,0.4c-0.1,0.2-0.2,0.4-0.4,0.6
	c-0.2,0.4-0.4,0.7-0.6,0.9h-27c-3-11-1-19,3-24c2.2-2.8,10.1-5,18-6.7c6.2-1.4,12.4-2.4,16-3.3c8-2,10-10,3-15
	c-2.1-1.5-3-3.4-2.9-5.2c0.1-2.6,2.1-5.1,4.7-6.8c1.6-1,3.4-1.8,5.2-2c3.8-0.5,12.4-3.8,19.6-8.2h0l11.3-20.3l0,0
	c-0.9-8.3-3.9-16.5-3.9-16.5h-0.3c-13.4-32.6-32.7-58.6-54.5-76.3c-0.8-0.6-1.6-1.3-2.4-1.9c-25-19.5-50.6-28.7-72.7-55.9
	c-4.6-5.6-17.1-23.4-14.5-51.2c1.3-14.4,3.3-33.1,10.7-41.6c0.1-0.1,0.2-0.2,0.3-0.3c0.1-0.1,0.2-0.2,0.3-0.3
	c0.2-0.2,0.3-0.3,0.5-0.5c5.9-5.5,13.1-5.5,19.8-7.7c13.3-4.2,25.2-17.8,32.1-36.4c5.9-16.2,7.8-34.9,6.9-53.7h26.3
	c-1.6,14.4-5.8,29.7-2.9,43.5c1.1,5.3,3.2,10,4.3,15.3c3.4,16.8-5,35.5-15.7,40.2c-4.7,2.1-9.7,2.1-14.5,3.9
	c-17.5,6.4-29.1,38.4-24.8,66.1c3.1,19.4,12.4,34.9,22.9,46s22.3,18.5,33.4,28c23,19.7,54.9,71,57.4,83s15.3,11,17.3,16
	S225,358,222,363L222,363z"/>
<path class="st6" d="M163.2,429.1c0.1-0.1,0.1-0.2,0.2-0.3c-0.1,0.1-0.1,0.1-0.1,0.2C163.3,429,163.3,429.1,163.2,429.1
	C163.3,429.1,163.3,429.1,163.2,429.1z"/>
<path class="st6" d="M177.1,414.5c-0.5,0.3-1.1,0.7-1.6,1.1c-0.4,0.3-0.7,0.5-1.1,0.9c-0.3,0.3-0.7,0.6-1,0.9
	c-0.3,0.3-0.7,0.6-1,0.9l-0.1,0.1c-0.4,0.4-0.7,0.7-1.1,1.1c-0.2,0.2-0.4,0.4-0.5,0.5c0,0-0.1,0.1-0.1,0.1c-0.3,0.3-0.6,0.7-0.9,1
	c-0.7,0.8-1.4,1.6-2,2.4c-0.3,0.4-0.6,0.7-0.9,1.1c-1,1.2-1.9,2.4-2.7,3.5c-0.2,0.2-0.3,0.5-0.5,0.7c0.2-0.3,0.5-0.7,0.7-1
	c0.5-0.7,1.1-1.4,1.6-2.2c0.3-0.4,0.7-0.9,1-1.3c0.4-0.4,0.7-0.9,1.1-1.3c0.2-0.2,0.3-0.4,0.5-0.6c0.2-0.2,0.4-0.4,0.5-0.6
	c1.7-2,3.6-3.9,5.5-5.4c0.2-0.2,0.4-0.4,0.7-0.5c0.2-0.2,0.5-0.4,0.8-0.5c0.2-0.1,0.4-0.3,0.7-0.4c0.1-0.1,0.2-0.1,0.3-0.2
	C177,414.5,177,414.5,177.1,414.5L177.1,414.5z"/>
<path class="st6" d="M179.2,413.4c-0.7,0.3-1.4,0.6-2.1,1.1c0,0,0.1,0,0.1,0c0.5-0.3,0.9-0.5,1.4-0.8
	C178.8,413.6,179,413.5,179.2,413.4L179.2,413.4z"/>
<path class="st3" d="M73.6,98.6c-0.1,0.1-0.2,0.2-0.3,0.3c0-0.1,0.1-0.1,0.1-0.2C73.5,98.8,73.5,98.7,73.6,98.6z"/>
<path class="st3" d="M149.8,247.8c-25.1-19.5-53.5-29.7-75.6-56.9c-4.6-5.6-8.9-12.2-11.3-20.5c-2.9-10.3-2.5-22.1-1.5-33.2
	c1.4-14.4,4.4-30,11.9-38.1c-7.4,8.5-9.3,27.2-10.7,41.6c-2.6,27.9,9.9,45.6,14.5,51.2C99.2,219,124.8,228.3,149.8,247.8
	L149.8,247.8z"/>
<path class="st3" d="M141.6,282.1c-16.5-14.8-38.2,6.6-46.5-14.5c-8.3-21.1-29.7-5.7-34.4-12.4c-4.5-6.4-3.3-39.2-6.6-54.6
	S39,163.9,37.2,139.5C35.5,115,48.6,89,59.4,71.3C48.6,89,45,115.4,46.8,139.9c1.8,24.4,8.4,47.3,15.9,68.8
	c2.9,8.4,6.1,16.8,10.5,23.2c4.7,6.7,10.5,11,16.3,14.8C106.9,258.3,125.2,267.3,141.6,282.1L141.6,282.1z"/>
<path class="st0" d="M367.6,164.8c-4.9,10.3-12,17.1-17.9,26.1c-9.6,14.6-15.4,34.3-21,53.5c-5.1,17.5-10.3,36.1-8.9,55.2
	c0.7,9.6,3,18.4,6.2,26.5H326c0,0,9,26,8,31c-0.7,3.5-18.3,22.9-29.7,35.8c-4.8,5.4-8.5,9.7-9.3,11.2c-3,5-4,30-4,30h-37v0l0-0.1
	c0,0,0-0.1,0.1-0.1c0.1-0.1,0.1-0.2,0.2-0.4c0.1-0.2,0.2-0.6,0.4-0.9c0-0.1,0.1-0.2,0.1-0.2c0.1-0.3,0.2-0.5,0.3-0.9
	c0.1-0.3,0.3-0.7,0.4-1.1c0.2-0.6,0.4-1.2,0.6-1.9c0.1-0.4,0.2-0.7,0.4-1.1c0-0.2,0.1-0.4,0.2-0.6c0.1-0.4,0.2-0.8,0.3-1.2
	c0-0.2,0.1-0.4,0.2-0.6c0.2-0.6,0.3-1.2,0.4-1.7c0-0.2,0.1-0.4,0.1-0.6c0.1-0.3,0.1-0.6,0.2-0.9c0.1-0.5,0.1-0.9,0.2-1.3
	c0-0.2,0-0.4,0.1-0.6c0-0.3,0-0.5,0-0.8c0-2.7,4.3-8.5,9.4-14c4.4-4.7,9.3-9.1,12.6-11c7-4,26-25,29-45c0.2-1.1,0.2-1.2,0.3-2.5
	c2-17.4-4-17.5-5.3-20.5s0,0,0,0l0,0c-1-3.5-1.7-7.1-2.2-10.9c-3.8-30,9.3-58.7,11.8-89c2-24.5-3.3-50.3-14.1-68.1
	c-9.3-15.3-21.9-24.4-31.5-39.3c-15.3-23.8-20.9-60.6-17.6-94.3c0.8-8.3,2.1-16.5,3.8-24.4h37.6c-4.1,9.9-7.9,20-9.8,31.4
	c-1.7,10.4-1.7,21.4-1.5,32.1c0.3,17.4,1.2,36.1,8.3,49.5c6.5,12.4,17.2,17.6,27.3,17.8s20.1-3.9,30-7.2c7.9-2.6,17.4-3.8,22.8,5.6
	C374.4,138.7,372.5,154.5,367.6,164.8L367.6,164.8z"/>
<path class="st0" d="M375,93.9v134.8c-4,7.8-8.5,15-12.1,23.3c-4.8,11.2-7.9,24.2-9.7,37.5c-1.7,11.9-2.4,24.5-1.4,36.5
	c0,0-0.7,9-3.7,12s-2,4,2,9s-2,28-4,35c-1.6,5.6-13.5,12.5-19.7,16.1c-1.5,0.9-2.7,1.5-3.3,1.9c-2.9,2-7.8,32.8-8,34c0,0-24,0-24,0
	s1-25,4-30c0.9-1.5,4.6-5.8,9.3-11.2c11.4-12.9,29-32.3,29.7-35.8c1-5-8-31-8-31h0.1c-3.2-8.1-5.5-17-6.2-26.5
	c-1.4-19.1,3.8-37.7,8.9-55.2c5.6-19.2,11.4-38.9,21-53.5c5.9-8.9,13-15.8,17.9-26.1c4.9-10.3,6.8-26,1.4-35.5
	c-5.4-9.5-14.9-8.2-22.8-5.6c-9.9,3.2-19.9,7.4-30,7.2s-20.8-5.4-27.3-17.8c-7-13.3-8-32.1-8.3-49.5c-0.2-10.8-0.2-21.7,1.5-32.1
	C284,20,287.8,9.9,291.9,0H315c-1.7,31.7-14.2,73.2,2.6,90.8c9.3,9.7,41.7,6.9,51.1,16.5c2.1,2.2,4.2,4.6,6.1,7.3v-21
	C374.8,93.7,374.9,93.8,375,93.9L375,93.9z"/>
<path class="st6" d="M374.7,93.6v21c-1.9-2.7-4-5.1-6.1-7.3c-9.3-9.6-41.8-6.8-51.1-16.5C300.7,73.2,313.3,31.7,315,0h11
	c-1.4,26,6,53.5,19.8,68c7.6,8,16.5,12.2,24.2,20C371.7,89.7,373.2,91.6,374.7,93.6L374.7,93.6z"/>
<path class="st7" d="M375,228.7V434c0,0-60,0-60,0c0.2-1.2,5.1-32,8-34c0.6-0.4,1.8-1.1,3.3-1.9c6.2-3.5,18.1-10.5,19.7-16.1
	c2-7,8-30,4-35s-5-6-2-9s3.7-12,3.7-12c-1-12.1-0.3-24.6,1.4-36.5c1.9-13.3,4.9-26.2,9.7-37.4C366.5,243.7,371,236.5,375,228.7z"/>
<path class="st8" d="M374.7,0v114.6c-1.9-2.7-4-5.1-6.1-7.3c-9.3-9.6-41.8-6.8-51.1-16.5C300.7,73.2,313.3,31.7,315,0H374.7L374.7,0
	z"/>
<path class="st9" d="M73.6,98.6c-0.1,0.1-0.2,0.2-0.3,0.3c0-0.1,0.1-0.1,0.1-0.2C73.5,98.8,73.5,98.7,73.6,98.6z"/>
<path class="st9" d="M149.8,247.8c-25.1-19.5-53.5-29.7-75.6-56.9c-4.6-5.6-8.9-12.2-11.3-20.5c-2.9-10.3-2.5-22.1-1.5-33.2
	c1.4-14.4,4.4-30,11.9-38.1c-7.4,8.5-9.3,27.2-10.7,41.6c-2.6,27.9,9.9,45.6,14.5,51.2C99.2,219,124.8,228.3,149.8,247.8
	L149.8,247.8z"/>
<path class="st5" d="M58,378c-3,17-20,20-39,20S0,412,0,412v-62.5c0,0,11,0.5,17,6.5s18,6,33-2S61,361,58,378z"/>
<path class="st0" d="M279.1,286.8c-1.2,13.8,7.2,29.4,6.9,39.2s-2,19-1,28s-21,40-26,43c-1.6,1-3,2.2-4.1,3.7
	c-1.7,2.2-2.8,4.7-3,7.2c-0.1,1.1-0.1,2.1,0.1,3.1c0.7,3.5-4.9,10.8-8.3,16.6c-1.5,2.6-2.7,4.8-2.7,6.4h-11c0,0,0,0,0.1-0.1l0-0.1
	c0,0,0-0.1,0.1-0.1l0-0.1l0.1-0.3c0-0.1,0-0.1,0.1-0.2c0-0.1,0.1-0.1,0.1-0.2c0-0.1,0.1-0.3,0.2-0.4c0.5-1.2,1.2-2.9,2.1-5
	c0.1-0.2,0.2-0.5,0.3-0.8c1.1-2.6,2.5-5.8,4-9.3c0.2-0.4,0.4-0.9,0.6-1.3c1.5-3.5,3.2-7.2,5-11c0.2-0.4,0.3-0.7,0.5-1.1
	c0.8-1.7,1.6-3.3,2.4-5c5.6-11.5,11.6-22.9,16.4-28.9c12-15,0.6-29-0.3-44.2c-0.9-15.2,9.6-40.3,1.8-56.8
	c-11.1-23.4-26.4-40.7-41.9-56.4c-8.9-9.1-19-20.2-19.9-36.9c-1.2-21.9,13.5-37.1,18.5-57.6c2.7-11.2,2.3-24.1-1.1-34.8
	c-1.9-5.8-4.6-11.2-5.2-17.6c-0.7-6.8,1.1-13.5,2.9-19.7c4.3-15.3,8.6-30.7,12.9-46h11.7c-1.1,4-0.5,8.9-2.4,12.1
	c-2.8,4.4-2.7,2.1-1.9,17.7c0.8,15.6-5.4,16.2-7.5,24.6c-1,3.7-1.9,7.8-1.2,11.6c0.6,2.9,2,5.1,3.4,7.2c6.2,9.2,12.6,18.7,15.9,31.1
	c3.3,12.4,2.7,28.6-3.9,37.1c-5.3,6.8-13.6,8.1-16.7,17.7c-2.7,8.2,0.1,18.5,4.1,25.1c13.7,22.5,37.4,18.2,54.1,34.8
	c1.6,1.6,3.2,3.5,4.3,6c1.4,3.2,1.7,7.3,1.6,11.1C290.6,254.3,280.7,268.8,279.1,286.8z"/>
<path class="st10" d="M210.8,342.5c-0.7,4.4-5.8,17.3-11.3,20.3s0,0,0,0c-7.2,4.4-15.7,7.7-19.5,8.2c-1.8,0.3-3.7,1-5.2,2
	c-2.6,1.7-4.5,4.2-4.7,6.8c-0.1,1.8,0.7,3.6,2.9,5.2c7,5,5,13-3,15c-3.5,0.9-9.8,2-16,3.3c-7.9,1.7-15.8,3.9-18,6.7c-4,5-6,13-3,24
	h-14c0,0,0-8-4-18s10-26,12-27s20-25,27-36c3.4-5.3,8.5-10.1,12.7-14.4c4.5-4.7,6.5-7.2,6-12.6s-18.9-33-31-43.9
	c-16.5-14.8-38.2,6.6-46.5-14.5c-8.3-21.1-29.7-5.7-34.4-12.4c-4.5-6.5-3.3-39.2-6.6-54.7s-15.1-36.6-16.8-61
	C35.5,115,48.6,89,59.4,71.3c0.1-0.1,0.2-0.3,0.3-0.4c5.4-8.6,15.4-16.7,17.9-17c2.6-0.3,13.8-0.4,17.5-3
	c3.8-2.6,15.4-10.5,21.6-35.8c2.1-8.5,2.5-12.9,2.1-15.1c-0.3,0-0.8,0-1.6,0h16c0.9,18.8-1,37.6-6.9,53.7
	c-6.8,18.6-18.8,32.2-32.1,36.4c-6.7,2.1-13.9,2.1-19.8,7.6c-0.2,0.2-0.3,0.3-0.5,0.5c-0.1,0.1-0.2,0.2-0.3,0.3
	c-0.1,0.1-0.1,0.1-0.2,0.2c-0.1,0-0.1,0.1-0.1,0.2c-7.5,8.2-10.5,23.7-11.9,38.1c-1.1,11.1-1.4,22.9,1.5,33.2
	c2.4,8.4,6.7,14.9,11.3,20.5c22.1,27.2,50.5,37.4,75.6,56.9c0.8,0.6,1.6,1.3,2.4,1.9c21.8,17.7,41.2,43.7,54.5,76.3
	C206.7,326,211.6,338.1,210.8,342.5z"/>
</svg>
