<?xml version="1.0" encoding="UTF-8"?>
<svg id="Layer_2" data-name="Layer 2" xmlns="http://www.w3.org/2000/svg" viewBox="0 0 374.73 44.5">
  <defs>
    <style>
      .cls-1 {
        fill: #b431b6;
      }

      .cls-2 {
        fill: #ab35ab;
      }

      .cls-3 {
        fill: #3f094c;
      }

      .cls-4 {
        fill: #8a139b;
      }

      .cls-5 {
        fill: #7d1089;
      }

      .cls-6 {
        fill: #520a56;
      }
    </style>
  </defs>
  <g id="Layer_1-2" data-name="Layer 1">
    <g>
      <path class="cls-2" d="M374.73,0V44.5h-64.85c1.51-14.82,4.34-30.59,5.1-44.5h59.75Z"/>
      <path class="cls-5" d="M314.98,0c-.76,13.91-3.59,29.68-5.1,44.5h-29.15c.02-.41,.04-.81,.07-1.22,.03-.5,.06-1,.1-1.5,.07-1,.15-1.99,.24-2.98,.05-.5,.09-.99,.15-1.48,.04-.36,.07-.72,.11-1.07,.06-.47,.12-.93,.18-1.4,.08-.57,.15-1.14,.24-1.71,.08-.57,.17-1.14,.26-1.71,1.88-11.41,5.72-21.49,9.8-31.43h23.1Z"/>
      <path class="cls-4" d="M291.88,0c-4.08,9.94-7.92,20.02-9.8,31.43-.1,.57-.18,1.14-.26,1.71-.09,.57-.16,1.14-.24,1.71-.06,.47-.12,.93-.18,1.4-.04,.35-.07,.71-.11,1.07-.06,.49-.1,.98-.15,1.48-.09,.99-.17,1.98-.24,2.98-.04,.5-.07,1-.1,1.5-.03,.41-.05,.81-.07,1.22h-31.19c-.03-3.76,.05-7.51,.25-11.24,.06-1.29,.14-2.58,.23-3.86,.11-1.66,.25-3.31,.41-4.96,.81-8.34,2.1-16.5,3.81-24.44h37.64Z"/>
      <path class="cls-6" d="M254.24,0c-1.71,7.94-3,16.1-3.81,24.44-.16,1.65-.3,3.3-.41,4.96-.09,1.28-.17,2.57-.23,3.86-.2,3.73-.28,7.48-.25,11.24h-15.08c1.64-3.1,2.9-7.14,2.49-14.73-.83-15.64-.87-13.27,1.9-17.71,1.96-3.12,1.29-8.05,2.43-12.06h12.96Z"/>
      <path class="cls-5" d="M238.85,12.06c-2.77,4.44-2.73,2.07-1.9,17.71,.41,7.59-.85,11.63-2.49,14.73h-17.33c4.15-14.84,8.3-29.66,12.45-44.5h11.7c-1.14,4.01-.47,8.94-2.43,12.06Z"/>
      <path class="cls-4" d="M229.58,0c-4.15,14.84-8.3,29.66-12.45,44.5h-41.63c.01-.6,.02-1.19,.04-1.77,.02-.33,.03-.66,.06-.99,0-.1,.01-.21,.02-.32,.01-.21,.03-.43,.05-.65,.04-.48,.08-.96,.14-1.44,.05-.43,.11-.86,.17-1.28,.08-.56,.18-1.11,.29-1.65,.03-.17,.07-.34,.11-.51,.08-.41,.17-.8,.27-1.2,.26-1.03,.57-2.04,.93-3.03,3.7-10.06,11.55-13.69,17.67-20.11,2.97-3.11,5.55-7.05,7.68-11.55h26.65Z"/>
      <path class="cls-1" d="M202.93,0c-2.13,4.5-4.71,8.44-7.68,11.55-6.12,6.42-13.97,10.05-17.67,20.11-.36,.99-.67,2-.93,3.03-.1,.4-.19,.79-.27,1.2-.04,.17-.08,.34-.11,.51-.11,.54-.21,1.09-.29,1.65-.06,.42-.12,.85-.17,1.28-.06,.48-.1,.96-.14,1.44-.02,.22-.04,.44-.05,.65-.01,.11-.02,.22-.02,.32-.03,.33-.04,.66-.06,.99-.02,.58-.03,1.17-.04,1.77h-18.64c-.08-.33-.15-.66-.22-.99-2.91-13.77,1.24-29.06,2.88-43.51h43.41Z"/>
      <path class="cls-6" d="M156.64,43.51c.07,.33,.14,.66,.22,.99h-27.69c.04-.16,.09-.33,.12-.49,.12-.42,.22-.84,.33-1.27,.41-1.67,.78-3.36,1.13-5.08,.01-.09,.03-.17,.04-.25,.16-.81,.31-1.62,.45-2.43,.12-.63,.23-1.27,.32-1.91,.1-.54,.18-1.09,.26-1.63,.12-.78,.23-1.57,.33-2.36,.1-.74,.19-1.48,.27-2.23,.06-.46,.11-.92,.15-1.38,.07-.62,.13-1.24,.19-1.86,.01-.16,.03-.32,.04-.48,.08-.92,.16-1.83,.22-2.76,.08-1.14,.15-2.29,.2-3.44,.04-.66,.07-1.32,.09-1.98,.01-.34,.03-.69,.04-1.04,.01-.42,.02-.84,.03-1.26,.02-.59,.03-1.18,.03-1.77,.05-3.61,0-7.25-.18-10.88h26.29c-1.64,14.45-5.79,29.74-2.88,43.51Z"/>
      <path class="cls-3" d="M133.41,10.88c0,.59,0,1.18-.03,1.77-.01,.42-.02,.84-.03,1.26,0,.35-.03,.7-.04,1.04-.02,.66-.05,1.32-.09,1.98-.05,1.15-.12,2.3-.2,3.44-.06,.93-.14,1.84-.22,2.76-.01,.16-.03,.32-.04,.48-.06,.62-.12,1.24-.19,1.86-.04,.46-.09,.92-.15,1.38-.08,.75-.17,1.49-.27,2.23-.1,.79-.21,1.58-.33,2.36-.08,.54-.16,1.09-.26,1.63-.09,.64-.2,1.28-.32,1.91-.14,.81-.29,1.62-.45,2.43,0,.08-.03,.16-.04,.25-.35,1.72-.72,3.41-1.13,5.08-.11,.43-.21,.85-.33,1.27-.03,.16-.08,.33-.12,.49h-26.69c.15-.16,.3-.33,.45-.5,.31-.35,.62-.7,.92-1.08,.31-.37,.62-.76,.93-1.16,.32-.41,.64-.83,.95-1.27,.02-.03,.04-.06,.07-.09,.46-.63,.92-1.3,1.37-2.01,.15-.23,.31-.47,.46-.72,.17-.28,.35-.57,.53-.86,.26-.44,.53-.88,.79-1.35,.03-.06,.06-.13,.1-.19,.32-.56,.63-1.14,.94-1.74,.31-.6,.62-1.22,.93-1.86,.3-.62,.6-1.27,.9-1.94,.06-.14,.12-.29,.19-.44,.24-.55,.47-1.11,.71-1.69,1.02-2.53,1.99-5.32,2.88-8.4,.13-.44,.26-.88,.38-1.34,.25-.9,.49-1.83,.72-2.78,2.08-8.51,2.49-12.93,2.12-15.07-.26,0-.8,0-1.57-.01h15.98c.17,3.63,.23,7.27,.18,10.88Z"/>
      <path class="cls-6" d="M116.7,15.08c-.23,.95-.47,1.88-.72,2.78-.12,.46-.25,.9-.38,1.34-.89,3.08-1.86,5.87-2.88,8.4-.24,.58-.47,1.14-.71,1.69-.07,.15-.13,.3-.19,.44-.3,.67-.6,1.32-.9,1.94-.31,.64-.62,1.26-.93,1.86-.31,.6-.62,1.18-.94,1.74-.04,.06-.07,.13-.1,.19-.27,.46-.53,.91-.79,1.35-.18,.29-.36,.58-.53,.86-.15,.25-.31,.49-.46,.72-.46,.71-.92,1.38-1.37,2.01-.03,.03-.05,.06-.07,.09-.31,.44-.63,.86-.95,1.27-.31,.4-.62,.79-.93,1.16-.3,.38-.61,.73-.92,1.08-.15,.17-.3,.34-.45,.5H56.39c.38-.51,.75-1.03,1.12-1.55,2.59-3.69,5.04-7.67,7.38-11.73,5.37-9.31,10.45-19.48,13.26-31.22h39.1c.77,.01,1.31,.01,1.57,.01,.37,2.14-.04,6.56-2.12,15.07Z"/>
      <path class="cls-5" d="M78.15,0c-2.81,11.74-7.89,21.91-13.26,31.22-2.34,4.06-4.79,8.04-7.38,11.73-.37,.52-.74,1.04-1.12,1.55H0V0H78.15Z"/>
    </g>
  </g>
</svg>