<?xml version="1.0" encoding="UTF-8"?>
<svg id="Layer_2" data-name="Layer 2" xmlns="http://www.w3.org/2000/svg" viewBox="0 0 45.07 45.16">
  <g id="Layer_1-2" data-name="Layer 1">
    <g>
      <path d="M45.06,22.65c0,2.76,0,5.51,0,8.27,0,7.13-4.69,12.76-11.69,14.04-.75,.14-1.52,.19-2.28,.19-5.7,.02-11.4,.02-17.1,0-6.95-.01-12.74-4.96-13.83-11.85-.12-.77-.16-1.57-.16-2.35C0,25.37,0,19.79,0,14.21,.01,7.12,4.68,1.49,11.65,.21,12.42,.07,13.22,.01,14,.01,19.68,0,25.35,0,31.03,0c7.79,0,13.98,6.17,14.03,13.98,.02,2.89,0,5.78,0,8.67Zm-22.6,17.45s0,.03,0,.04c2.84,0,5.68,.02,8.52,0,5.1-.04,9-3.84,9.05-8.93,.06-5.75,.06-11.51,0-17.27-.06-5.02-3.88-8.84-8.88-8.89-5.74-.06-11.49-.06-17.23,0-5.02,.05-8.85,3.92-8.89,8.95-.04,5.71-.04,11.42,0,17.13,.03,4.82,3.48,8.63,8.27,8.93,3.04,.19,6.11,.04,9.17,.04Z"/>
      <path d="M22.51,34.13c-6.35,0-11.52-5.23-11.5-11.6,.02-6.33,5.21-11.5,11.54-11.49,6.35,0,11.52,5.23,11.5,11.6-.02,6.33-5.21,11.5-11.54,11.49Zm7-11.55c0-3.89-3.13-7.01-7-6.99-3.86,.01-6.94,3.1-6.96,6.97-.02,3.88,3.09,7.02,6.97,7.03,3.87,.01,7-3.12,7-7Z"/>
      <path d="M34.59,8.41c1.07-.01,1.97,.88,1.97,1.95,0,1.06-.84,1.94-1.88,1.97-1.06,.03-2-.85-2.02-1.91-.02-1.06,.88-2,1.93-2.01Z"/>
    </g>
  </g>
</svg>