<?xml version="1.0" encoding="UTF-8"?>
<svg id="Layer_2" data-name="Layer 2" xmlns="http://www.w3.org/2000/svg" viewBox="0 0 45 45">
  <g id="Layer_1-2" data-name="Layer 1">
    <path d="M31,0H14C6.27,0,0,6.27,0,14V31c0,7.73,6.27,14,14,14H31c7.73,0,14-6.27,14-14V14c0-7.73-6.27-14-14-14ZM14.71,18.5c0,6.2,0,12.39,0,18.59,0,1.18-.39,1.56-1.57,1.56-1.32,0-2.63,0-3.95,0-.96,0-1.38-.43-1.38-1.37,0-3.16,0-6.32,0-9.48,0-3.17,0-6.34,0-9.52,0-.9,.42-1.32,1.33-1.32,1.44,0,2.88,0,4.31,0,.77,0,1.23,.45,1.26,1.21,0,.11,0,.22,0,.32Zm-3.48-3.26c-2.42,0-4.46-2.01-4.44-4.45,.02-2.6,2.04-4.45,4.46-4.46,2.45-.02,4.44,2.02,4.44,4.48,0,2.43-2.02,4.44-4.45,4.43Zm27.67,22.08c0,.91-.44,1.33-1.34,1.33-1.48,0-2.96,0-4.44,0-.91,0-1.29-.39-1.29-1.3,0-3.32,.02-6.64-.01-9.96,0-.78-.12-1.58-.31-2.34-.37-1.49-1.41-2.33-2.84-2.44-1.54-.12-2.75,.57-3.41,1.93-.47,.97-.7,1.99-.7,3.07,0,3.25,0,6.51,0,9.76,0,.86-.42,1.28-1.28,1.28-1.45,0-2.9,0-4.36,0-.83,0-1.27-.44-1.27-1.26,0-6.39,0-12.78,0-19.16,0-.84,.42-1.25,1.27-1.25,1.49,0,2.98,0,4.48,0,.74,0,1.16,.43,1.17,1.18,0,.43,0,.85,0,1.4,1.04-1.48,2.36-2.33,3.99-2.67,1.65-.35,3.31-.36,4.95,.07,2.74,.73,4.16,2.68,4.86,5.29,.43,1.61,.51,3.26,.53,4.91,.03,3.39,.02,6.78,.02,10.17Z"/>
  </g>
</svg>